<svg width="14" height="14" viewBox="0 0 14 14" fill="none" xmlns="http://www.w3.org/2000/svg">
<path fill-rule="evenodd" clip-rule="evenodd" d="M6.78066 1.66417C5.82994 1.77604 4.95252 2.23063 4.31302 2.94294C3.67047 3.65865 3.31271 4.58487 3.30732 5.54633V6.10426L3.30732 6.10561C3.30651 6.50326 3.18711 6.89161 2.96442 7.22104C2.74184 7.55031 2.42618 7.80576 2.05778 7.95484C1.94273 8.00161 1.84422 8.08147 1.77472 8.18424C1.70538 8.28676 1.66803 8.40748 1.66732 8.53114C1.66768 8.83091 1.78697 9.11838 1.99915 9.33046C2.21167 9.54288 2.49997 9.66227 2.80065 9.66227H11.2007C11.5013 9.66227 11.7896 9.54288 12.0022 9.33046C12.2147 9.11806 12.334 8.83004 12.334 8.52978V8.52461C12.3349 8.40108 12.2993 8.28001 12.2315 8.17665C12.1643 8.07413 12.0684 7.99356 11.9557 7.94498C11.5911 7.7941 11.2792 7.53873 11.0594 7.21093C10.8386 6.88162 10.7206 6.49409 10.7207 6.0976V5.35848C10.7202 4.85134 10.6157 4.34968 10.4134 3.88458C10.2111 3.41947 9.9154 3.00081 9.54461 2.65455C9.17381 2.30828 8.73581 2.04179 8.25774 1.8716C7.78448 1.70312 7.28195 1.63257 6.78066 1.66417ZM6.67596 0.334831C7.36436 0.288575 8.05494 0.384097 8.70491 0.615487C9.35489 0.846877 9.95043 1.20921 10.4546 1.68006C10.9588 2.1509 11.361 2.72024 11.6361 3.35279C11.9112 3.98535 12.0534 4.66765 12.054 5.35741V6.0976C12.054 6.2296 12.0932 6.35863 12.1668 6.46832C12.2404 6.57802 12.3449 6.66343 12.4672 6.71365L12.475 6.71687C12.8311 6.86836 13.1343 7.12188 13.3465 7.44541C13.5582 7.76819 13.6698 8.14628 13.6673 8.53225C13.6667 9.18544 13.4068 9.81167 12.9447 10.2735C12.4821 10.7359 11.8547 10.9956 11.2007 10.9956H2.80065C2.14655 10.9956 1.51918 10.7359 1.05657 10.2735C0.593941 9.81109 0.333984 9.18386 0.333984 8.52978V8.52723C0.335472 8.1386 0.452535 7.75921 0.67025 7.43729C0.887962 7.11537 1.19648 6.86547 1.55656 6.7193L1.55742 6.71896C1.68035 6.66925 1.78561 6.58406 1.85979 6.47433C1.93387 6.36475 1.97361 6.23564 1.97398 6.10346V5.54106C1.98067 4.2525 2.45992 3.01117 3.32087 2.0522C4.18181 1.09324 5.36466 0.483219 6.64533 0.337599C6.65552 0.336441 6.66573 0.335518 6.67596 0.334831ZM5.28815 11.7797C5.591 11.5702 6.00625 11.646 6.21566 11.9488C6.29154 12.0586 6.39574 12.1458 6.51725 12.2012C6.52601 12.2052 6.53468 12.2094 6.54326 12.2137C6.75374 12.321 6.99526 12.3508 7.22555 12.298C7.45584 12.2452 7.66016 12.1132 7.8028 11.9251C8.0253 11.6318 8.44348 11.5743 8.73684 11.7968C9.0302 12.0193 9.08766 12.4375 8.86516 12.7309C8.53345 13.1682 8.05849 13.475 7.52342 13.5977C6.99298 13.7192 6.43688 13.6522 5.95076 13.4082C5.61612 13.2528 5.32893 13.0108 5.11898 12.7072C4.90957 12.4043 4.98531 11.9891 5.28815 11.7797Z" fill="#99999D"/>
</svg>
