<svg width="17" height="18" viewBox="0 0 17 18" fill="none" xmlns="http://www.w3.org/2000/svg">
<path fill-rule="evenodd" clip-rule="evenodd" d="M0.166992 3.58335C0.166992 1.97252 1.47283 0.666687 3.08366 0.666687H4.75033C6.36116 0.666687 7.66699 1.97252 7.66699 3.58335V5.25002C7.66699 6.86085 6.36116 8.16669 4.75033 8.16669H3.08366C1.47283 8.16669 0.166992 6.86085 0.166992 5.25002V3.58335ZM3.08366 2.33335C2.3933 2.33335 1.83366 2.893 1.83366 3.58335V5.25002C1.83366 5.94038 2.3933 6.50002 3.08366 6.50002H4.75033C5.44068 6.50002 6.00033 5.94038 6.00033 5.25002V3.58335C6.00033 2.893 5.44068 2.33335 4.75033 2.33335H3.08366ZM9.33366 3.58335C9.33366 1.97252 10.6395 0.666687 12.2503 0.666687H13.917C15.5278 0.666687 16.8337 1.97252 16.8337 3.58335V5.25002C16.8337 6.86085 15.5278 8.16669 13.917 8.16669H12.2503C10.6395 8.16669 9.33366 6.86085 9.33366 5.25002V3.58335ZM12.2503 2.33335C11.56 2.33335 11.0003 2.893 11.0003 3.58335V5.25002C11.0003 5.94038 11.56 6.50002 12.2503 6.50002H13.917C14.6073 6.50002 15.167 5.94038 15.167 5.25002V3.58335C15.167 2.893 14.6073 2.33335 13.917 2.33335H12.2503ZM0.166992 12.75C0.166992 11.1392 1.47283 9.83335 3.08366 9.83335H4.75033C6.36116 9.83335 7.66699 11.1392 7.66699 12.75V14.4167C7.66699 16.0275 6.36116 17.3334 4.75033 17.3334H3.08366C1.47283 17.3334 0.166992 16.0275 0.166992 14.4167V12.75ZM3.08366 11.5C2.3933 11.5 1.83366 12.0597 1.83366 12.75V14.4167C1.83366 15.107 2.3933 15.6667 3.08366 15.6667H4.75033C5.44068 15.6667 6.00033 15.107 6.00033 14.4167V12.75C6.00033 12.0597 5.44068 11.5 4.75033 11.5H3.08366ZM9.33366 12.75C9.33366 11.1392 10.6395 9.83335 12.2503 9.83335H13.917C15.5278 9.83335 16.8337 11.1392 16.8337 12.75V14.4167C16.8337 16.0275 15.5278 17.3334 13.917 17.3334H12.2503C10.6395 17.3334 9.33366 16.0275 9.33366 14.4167V12.75ZM12.2503 11.5C11.56 11.5 11.0003 12.0597 11.0003 12.75V14.4167C11.0003 15.107 11.56 15.6667 12.2503 15.6667H13.917C14.6073 15.6667 15.167 15.107 15.167 14.4167V12.75C15.167 12.0597 14.6073 11.5 13.917 11.5H12.2503Z" fill="#99999D"/>
</svg>
