<svg width="17" height="14" viewBox="0 0 17 14" fill="none" xmlns="http://www.w3.org/2000/svg">
<path fill-rule="evenodd" clip-rule="evenodd" d="M8.47357 1.90495C6.92651 1.90495 5.42468 2.42691 4.21099 3.38643C3.04926 4.30486 2.21655 5.57277 1.83408 6.99995C2.21655 8.42712 3.04926 9.69503 4.21099 10.6135C5.42468 11.573 6.92651 12.0949 8.47357 12.0949C10.0206 12.0949 11.5225 11.573 12.7362 10.6135C13.8979 9.69503 14.7306 8.42712 15.1131 6.99995C14.7306 5.57277 13.8979 4.30486 12.7362 3.38643C11.5225 2.42691 10.0206 1.90495 8.47357 1.90495ZM3.17764 2.07891C4.68556 0.886786 6.55147 0.238281 8.47357 0.238281C10.3957 0.238281 12.2616 0.886786 13.7695 2.07891C15.2774 3.27103 16.3392 4.93705 16.783 6.80751C16.8131 6.93405 16.8131 7.06585 16.783 7.19238C16.3392 9.06284 15.2774 10.7289 13.7695 11.921C12.2616 13.1131 10.3957 13.7616 8.47357 13.7616C6.55147 13.7616 4.68556 13.1131 3.17764 11.921C1.66972 10.7289 0.607972 9.06284 0.16412 7.19238C0.134095 7.06585 0.134095 6.93405 0.16412 6.80751C0.607972 4.93705 1.66972 3.27103 3.17764 2.07891ZM8.47357 6.16661C8.01341 6.16661 7.64038 6.53971 7.64038 6.99995C7.64038 7.46018 8.01341 7.83328 8.47357 7.83328C8.93374 7.83328 9.30677 7.46018 9.30677 6.99995C9.30677 6.53971 8.93374 6.16661 8.47357 6.16661ZM5.97398 6.99995C5.97398 5.61923 7.09309 4.49995 8.47357 4.49995C9.85406 4.49995 10.9732 5.61923 10.9732 6.99995C10.9732 8.38066 9.85406 9.49995 8.47357 9.49995C7.09309 9.49995 5.97398 8.38066 5.97398 6.99995Z" fill="#99999D"/>
</svg>
