<svg width="33" height="32" viewBox="0 0 33 32" fill="none" xmlns="http://www.w3.org/2000/svg">
<path d="M16.6387 32C25.5323 32 32.742 24.8366 32.742 16C32.742 7.16344 25.5323 0 16.6387 0C7.74518 0 0.535522 7.16344 0.535522 16C0.535522 24.8366 7.74518 32 16.6387 32Z" fill="#32323A"/>
<path d="M20.3798 10.9073H18.0345C17.9492 10.9128 17.8667 10.9395 17.7946 10.985C17.7224 11.0304 17.6629 11.0932 17.6216 11.1674C17.4956 11.3572 17.4321 11.5811 17.4399 11.8082V13.5723H20.3798V16.1356H17.4399V23.7918H14.6322V16.1389H12.1217V13.5723H14.6322V12.0856C14.6037 11.0794 14.9508 10.0983 15.6066 9.33114C15.8995 8.97353 16.2701 8.68648 16.6906 8.49151C17.111 8.29654 17.5705 8.19873 18.0345 8.2054H20.3798V10.9073Z" fill="white"/>
</svg>
