<svg width="17" height="18" viewBox="0 0 17 18" fill="none" xmlns="http://www.w3.org/2000/svg">
<path fill-rule="evenodd" clip-rule="evenodd" d="M6.00033 2.33335C4.61961 2.33335 3.50033 3.45264 3.50033 4.83335C3.50033 6.21407 4.61961 7.33335 6.00033 7.33335C7.38104 7.33335 8.50033 6.21407 8.50033 4.83335C8.50033 3.45264 7.38104 2.33335 6.00033 2.33335ZM1.83366 4.83335C1.83366 2.53217 3.69914 0.666687 6.00033 0.666687C8.30151 0.666687 10.167 2.53217 10.167 4.83335C10.167 7.13454 8.30151 9.00002 6.00033 9.00002C3.69914 9.00002 1.83366 7.13454 1.83366 4.83335ZM6.00033 9.00002C4.47804 9.00002 3.06217 9.40987 2.00254 10.1163C0.948733 10.8188 0.166992 11.8809 0.166992 13.1667C0.166992 14.4525 0.948733 15.5145 2.00254 16.2171C3.06217 16.9235 4.47804 17.3334 6.00033 17.3334C7.52261 17.3334 8.93848 16.9235 9.99811 16.2171C11.0519 15.5145 11.8337 14.4525 11.8337 13.1667C11.8337 11.8809 11.0519 10.8188 9.99811 10.1163C8.93848 9.40987 7.52261 9.00002 6.00033 9.00002ZM11.0003 3.16669C11.0003 2.70645 11.3734 2.33335 11.8337 2.33335C12.7177 2.33335 13.5656 2.68454 14.1907 3.30966C14.8158 3.93479 15.167 4.78263 15.167 5.66669C15.167 6.55074 14.8158 7.39859 14.1907 8.02371C13.5656 8.64883 12.7177 9.00002 11.8337 9.00002C11.3734 9.00002 11.0003 8.62692 11.0003 8.16669C11.0003 7.70645 11.3734 7.33335 11.8337 7.33335C12.2757 7.33335 12.6996 7.15776 13.0122 6.8452C13.3247 6.53264 13.5003 6.10872 13.5003 5.66669C13.5003 5.22466 13.3247 4.80074 13.0122 4.48818C12.6996 4.17562 12.2757 4.00002 11.8337 4.00002C11.3734 4.00002 11.0003 3.62692 11.0003 3.16669ZM2.92704 11.503C2.17121 12.0069 1.83366 12.6115 1.83366 13.1667C1.83366 13.7218 2.17121 14.3264 2.92704 14.8303C3.67705 15.3303 4.76119 15.6667 6.00033 15.6667C7.23946 15.6667 8.3236 15.3303 9.07361 14.8303C9.82944 14.3264 10.167 13.7218 10.167 13.1667C10.167 12.6115 9.82944 12.0069 9.07361 11.503C8.3236 11.003 7.23946 10.6667 6.00033 10.6667C4.76119 10.6667 3.67705 11.003 2.92704 11.503ZM11.8337 10.6667C11.8337 10.2064 12.2068 9.83335 12.667 9.83335C13.7502 9.83335 14.7631 10.1607 15.5241 10.7311C16.2857 11.302 16.8337 12.1543 16.8337 13.1667C16.8337 14.179 16.2857 15.0314 15.5241 15.6022C14.7631 16.1727 13.7502 16.5 12.667 16.5C12.2068 16.5 11.8337 16.1269 11.8337 15.6667C11.8337 15.2065 12.2068 14.8334 12.667 14.8334C13.4255 14.8334 14.0792 14.6024 14.5245 14.2686C14.9691 13.9353 15.167 13.5377 15.167 13.1667C15.167 12.7957 14.9691 12.3981 14.5245 12.0647C14.0792 11.731 13.4255 11.5 12.667 11.5C12.2068 11.5 11.8337 11.1269 11.8337 10.6667Z" fill="#99999D"/>
</svg>
