<svg width="33" height="32" viewBox="0 0 33 32" fill="none" xmlns="http://www.w3.org/2000/svg">
<path d="M16.1032 32C24.9968 32 32.2065 24.8366 32.2065 16C32.2065 7.16344 24.9968 0 16.1032 0C7.20966 0 0 7.16344 0 16C0 24.8366 7.20966 32 16.1032 32Z" fill="#32323A"/>
<path d="M16.2816 9.30794C18.4188 9.30794 18.669 9.31697 19.5146 9.35553C20.0224 9.3601 20.5255 9.45285 21.0011 9.62959C21.3482 9.758 21.6626 9.96083 21.9218 10.2236C22.188 10.4801 22.3922 10.7932 22.5189 11.1393C22.6965 11.612 22.7898 12.1118 22.7947 12.6163C22.8327 13.4557 22.8426 13.7068 22.8426 15.8327C22.8426 17.9587 22.8335 18.2073 22.7947 19.0492C22.7898 19.5537 22.6965 20.0535 22.5189 20.5261C22.3856 20.8689 22.1818 21.1803 21.9204 21.4403C21.6591 21.7002 21.3459 21.9031 21.0011 22.0359C20.5255 22.2126 20.0224 22.3054 19.5146 22.3099C18.6706 22.3485 18.4188 22.3575 16.2816 22.3575C14.1444 22.3575 13.8942 22.3452 13.0486 22.3067C12.5408 22.3021 12.0377 22.2093 11.5621 22.0326C11.215 21.9042 10.9006 21.7014 10.6413 21.4385C10.3752 21.1821 10.171 20.869 10.0443 20.5228C9.8685 20.0497 9.77523 19.5502 9.76846 19.0459C9.73047 18.2065 9.72056 17.9554 9.72056 15.8295C9.72056 13.7035 9.72552 13.4565 9.76764 12.6146C9.77252 12.1102 9.86586 11.6104 10.0435 11.1377C10.1729 10.7929 10.3767 10.4803 10.6405 10.222C10.8982 9.95724 11.213 9.75411 11.5613 9.62795C12.0369 9.45121 12.54 9.35846 13.0477 9.35389C13.8934 9.31779 14.1436 9.31041 16.2808 9.31041L16.2816 9.30794ZM16.2808 7.87695C14.1089 7.87695 13.8347 7.88598 12.9817 7.92454C12.3207 7.93596 11.6665 8.05859 11.0468 8.28721C10.5112 8.48767 10.0265 8.80282 9.62725 9.2103C9.22035 9.60883 8.90437 10.0896 8.70069 10.62C8.4669 11.2389 8.34149 11.893 8.32991 12.5539C8.29357 13.404 8.28284 13.6707 8.28284 15.836C8.28284 18.0014 8.29192 18.2689 8.33073 19.1181C8.34498 19.7785 8.4703 20.4319 8.70152 21.0513C8.90249 21.5815 9.21791 22.0615 9.6256 22.4576C10.025 22.8623 10.5079 23.1761 11.041 23.3774C11.6627 23.61 12.32 23.7349 12.9841 23.7467C13.8389 23.7828 14.1097 23.7959 16.2874 23.7959C18.465 23.7959 18.7334 23.7869 19.5865 23.7483C20.2504 23.7339 20.9072 23.6091 21.5296 23.3791C22.0613 23.1745 22.544 22.8617 22.9469 22.4608C23.3498 22.06 23.6639 21.5798 23.8691 21.0513C24.1028 20.4326 24.2282 19.7788 24.2399 19.1181C24.2779 18.268 24.2878 18.0006 24.2878 15.836C24.2878 13.6715 24.2787 13.4032 24.2399 12.5539C24.2256 11.8935 24.1003 11.2401 23.8691 10.6208C23.6683 10.09 23.3529 9.60936 22.945 9.21276C22.5456 8.8056 22.0618 8.48976 21.5271 8.28721C20.9054 8.05464 20.2482 7.92975 19.584 7.91798C18.7268 7.88352 18.4535 7.87695 16.2816 7.87695H16.2808Z" fill="white"/>
<path d="M16.2816 11.7446C15.4676 11.7435 14.6715 11.9823 13.9941 12.4307C13.3167 12.8792 12.7884 13.5172 12.476 14.2641C12.1636 15.011 12.0811 15.8331 12.239 16.6266C12.3969 17.42 12.7882 18.1491 13.3632 18.7216C13.9382 19.2941 14.6712 19.6843 15.4694 19.8428C16.2676 20.0013 17.0952 19.921 17.8475 19.6121C18.5998 19.3032 19.243 18.7795 19.6957 18.1073C20.1484 17.4351 20.3903 16.6446 20.3908 15.8358C20.3916 15.299 20.2859 14.7674 20.0797 14.2712C19.8736 13.775 19.5711 13.3241 19.1894 12.9441C18.8078 12.5642 18.3546 12.2627 17.8557 12.0569C17.3567 11.8511 16.8218 11.745 16.2816 11.7446ZM16.2816 18.4861C15.7533 18.4868 15.2367 18.3317 14.7972 18.0405C14.3576 17.7493 14.0149 17.335 13.8124 16.8502C13.6099 16.3654 13.5567 15.8318 13.6595 15.3169C13.7624 14.802 14.0167 14.3291 14.3902 13.9578C14.7637 13.5866 15.2396 13.3338 15.7577 13.2315C16.2759 13.1291 16.813 13.1818 17.301 13.3829C17.7889 13.584 18.2059 13.9243 18.4992 14.361C18.7924 14.7976 18.9486 15.3109 18.9481 15.8358C18.9477 16.5384 18.6666 17.212 18.1666 17.7088C17.6667 18.2056 16.9887 18.4849 16.2816 18.4853V18.4861Z" fill="white"/>
<path d="M20.5536 12.5378C21.0831 12.5378 21.5124 12.1105 21.5124 11.5833C21.5124 11.0562 21.0831 10.6289 20.5536 10.6289C20.0241 10.6289 19.5948 11.0562 19.5948 11.5833C19.5948 12.1105 20.0241 12.5378 20.5536 12.5378Z" fill="white"/>
</svg>
