<svg width="33" height="32" viewBox="0 0 33 32" fill="none" xmlns="http://www.w3.org/2000/svg">
<path d="M16.4064 32C25.3 32 32.5097 24.8366 32.5097 16C32.5097 7.16344 25.3 0 16.4064 0C7.51288 0 0.303223 7.16344 0.303223 16C0.303223 24.8366 7.51288 32 16.4064 32Z" fill="#32323A"/>
<path d="M11.1129 8.20561C10.8913 8.19214 10.6693 8.22454 10.461 8.30075C10.2526 8.37697 10.0625 8.49533 9.90256 8.64835C9.74264 8.80137 9.61645 8.98571 9.53197 9.1897C9.44749 9.3937 9.40656 9.6129 9.41178 9.83342C9.40555 10.0508 9.44449 10.2672 9.52616 10.4689C9.60784 10.6707 9.7305 10.8536 9.88648 11.0062C10.0425 11.1588 10.2284 11.2778 10.4328 11.3558C10.6371 11.4338 10.8554 11.4692 11.0741 11.4596H11.0931C11.3148 11.4734 11.5369 11.4413 11.7454 11.3654C11.954 11.2894 12.1443 11.1712 12.3045 11.0184C12.4647 10.8655 12.5911 10.6812 12.6759 10.4772C12.7606 10.2733 12.8018 10.054 12.7967 9.83342C12.8027 9.6142 12.7628 9.39613 12.6797 9.19298C12.5965 8.98982 12.4719 8.80598 12.3137 8.65304C12.1555 8.5001 11.9672 8.38139 11.7605 8.30438C11.5538 8.22737 11.3333 8.19374 11.1129 8.20561Z" fill="white"/>
<path d="M19.9854 12.524C19.4326 12.5065 18.8858 12.6426 18.4066 12.917C17.9274 13.1914 17.5347 13.5932 17.2727 14.0772V14.1075H17.2529C17.2605 14.0981 17.2671 14.0879 17.2727 14.0772V12.7447H14.2643C14.3031 13.6267 14.2643 22.1543 14.2643 22.1543H17.2727V16.903C17.2609 16.6451 17.2944 16.3872 17.3718 16.1408C17.4768 15.8134 17.682 15.5267 17.9588 15.3208C18.2357 15.1149 18.5703 14.9999 18.916 14.9921C20.0061 14.9921 20.4404 15.8561 20.4404 17.1205V22.1551H23.4497V16.7594C23.4505 13.8688 21.9649 12.524 19.9854 12.524Z" fill="white"/>
<path d="M12.5994 12.7446H9.58936V22.1539H12.5994V12.7446Z" fill="white"/>
</svg>
