<svg width="12" height="18" viewBox="0 0 12 18" fill="none" xmlns="http://www.w3.org/2000/svg">
<path fill-rule="evenodd" clip-rule="evenodd" d="M5.99996 2.33366C4.61925 2.33366 3.49996 3.45295 3.49996 4.83366C3.49996 6.21437 4.61925 7.33366 5.99996 7.33366C7.38067 7.33366 8.49996 6.21437 8.49996 4.83366C8.49996 3.45295 7.38067 2.33366 5.99996 2.33366ZM1.83329 4.83366C1.83329 2.53247 3.69877 0.666992 5.99996 0.666992C8.30115 0.666992 10.1666 2.53247 10.1666 4.83366C10.1666 7.13485 8.30115 9.00033 5.99996 9.00033C3.69877 9.00033 1.83329 7.13485 1.83329 4.83366ZM5.99996 9.00033C4.47767 9.00033 3.06181 9.41017 2.00218 10.1166C0.948367 10.8191 0.166626 11.8812 0.166626 13.167C0.166626 14.4528 0.948367 15.5149 2.00218 16.2174C3.06181 16.9238 4.47767 17.3337 5.99996 17.3337C7.52225 17.3337 8.93811 16.9238 9.99774 16.2174C11.0516 15.5149 11.8333 14.4528 11.8333 13.167C11.8333 11.8812 11.0516 10.8191 9.99774 10.1166C8.93811 9.41017 7.52225 9.00033 5.99996 9.00033ZM2.92668 11.5033C2.17084 12.0072 1.83329 12.6118 1.83329 13.167C1.83329 13.7221 2.17084 14.3267 2.92668 14.8306C3.67669 15.3306 4.76082 15.667 5.99996 15.667C7.2391 15.667 8.32323 15.3306 9.07324 14.8306C9.82908 14.3267 10.1666 13.7221 10.1666 13.167C10.1666 12.6118 9.82908 12.0072 9.07324 11.5033C8.32323 11.0033 7.2391 10.667 5.99996 10.667C4.76082 10.667 3.67669 11.0033 2.92668 11.5033Z" fill="#99999D"/>
</svg>
