<svg width="18" height="18" viewBox="0 0 18 18" fill="none" xmlns="http://www.w3.org/2000/svg">
<path fill-rule="evenodd" clip-rule="evenodd" d="M0.666992 4.83335C0.666992 2.53217 2.53247 0.666687 4.83366 0.666687H13.167C15.4682 0.666687 17.3337 2.53217 17.3337 4.83335V13.1667C17.3337 15.4679 15.4682 17.3334 13.167 17.3334H4.83366C2.53247 17.3334 0.666992 15.4679 0.666992 13.1667V4.83335ZM4.83366 2.33335C3.45295 2.33335 2.33366 3.45264 2.33366 4.83335V13.1667C2.33366 14.5474 3.45295 15.6667 4.83366 15.6667H13.167C14.5477 15.6667 15.667 14.5474 15.667 13.1667V4.83335C15.667 3.45264 14.5477 2.33335 13.167 2.33335H4.83366ZM4.83366 5.66669C4.83366 5.20645 5.20675 4.83335 5.66699 4.83335L12.3337 4.83335C12.7939 4.83335 13.167 5.20645 13.167 5.66669C13.167 6.12692 12.7939 6.50002 12.3337 6.50002L5.66699 6.50002C5.20675 6.50002 4.83366 6.12692 4.83366 5.66669ZM4.83366 9.00002C4.83366 8.53978 5.20675 8.16669 5.66699 8.16669H12.3337C12.7939 8.16669 13.167 8.53978 13.167 9.00002C13.167 9.46026 12.7939 9.83335 12.3337 9.83335H5.66699C5.20675 9.83335 4.83366 9.46026 4.83366 9.00002ZM4.83366 12.3334C4.83366 11.8731 5.20675 11.5 5.66699 11.5H9.83366C10.2939 11.5 10.667 11.8731 10.667 12.3334C10.667 12.7936 10.2939 13.1667 9.83366 13.1667H5.66699C5.20675 13.1667 4.83366 12.7936 4.83366 12.3334Z" fill="#99999D"/>
</svg>
