<svg width="16" height="18" viewBox="0 0 16 18" fill="none" xmlns="http://www.w3.org/2000/svg">
<path fill-rule="evenodd" clip-rule="evenodd" d="M9.52651 2.7603C8.65416 2.19834 7.54451 2.19062 6.66477 2.74017L3.04301 5.00256C2.24267 5.5025 1.74967 6.39228 1.74967 7.35664V10.8684C1.74967 11.8784 2.28987 12.8024 3.15015 13.286L6.77407 15.3234C7.59921 15.7873 8.60159 15.7807 9.42079 15.3057L12.8802 13.3001C13.7233 12.8113 14.2497 11.897 14.2497 10.9001V7.32416C14.2497 6.37349 13.7705 5.49419 12.9881 4.9902L9.52651 2.7603ZM5.78177 1.32662C7.20904 0.435058 9.01429 0.447789 10.4291 1.35919L13.8907 3.58909C15.1554 4.40379 15.9163 5.81418 15.9163 7.32416V10.9001C15.9163 12.4832 15.0805 13.9509 13.7162 14.7419L10.2567 16.7476C8.92746 17.5182 7.29659 17.5292 5.9573 16.7762L2.33337 14.7389C0.940759 13.9559 0.0830078 12.4722 0.0830078 10.8684V7.35664C0.0830078 5.825 0.865839 4.39744 2.16001 3.58901L5.78177 1.32662ZM7.99967 7.33335C7.07877 7.33335 6.33301 8.07912 6.33301 9.00002C6.33301 9.92092 7.07877 10.6667 7.99967 10.6667C8.92058 10.6667 9.66634 9.92092 9.66634 9.00002C9.66634 8.07912 8.92058 7.33335 7.99967 7.33335ZM4.66634 9.00002C4.66634 7.15864 6.1583 5.66669 7.99967 5.66669C9.84105 5.66669 11.333 7.15864 11.333 9.00002C11.333 10.8414 9.84105 12.3334 7.99967 12.3334C6.1583 12.3334 4.66634 10.8414 4.66634 9.00002Z" fill="#99999D"/>
</svg>
