<svg width="18" height="18" viewBox="0 0 18 18" fill="none" xmlns="http://www.w3.org/2000/svg">
<path fill-rule="evenodd" clip-rule="evenodd" d="M1.76455 1.76534C2.4677 1.06208 3.42137 0.666992 4.41577 0.666992H6.91536C7.90976 0.666992 8.86343 1.06208 9.56658 1.76534C10.2697 2.4686 10.6647 3.42243 10.6647 4.41699V5.66699C10.6647 6.12723 10.2917 6.50033 9.83155 6.50033C9.37139 6.50033 8.99835 6.12723 8.99835 5.66699V4.41699C8.99835 3.86446 8.7789 3.33455 8.38826 2.94385C7.99762 2.55315 7.4678 2.33366 6.91536 2.33366H4.41577C3.86333 2.33366 3.33351 2.55315 2.94287 2.94385C2.55223 3.33455 2.33278 3.86446 2.33278 4.41699V13.5837C2.33278 14.1362 2.55223 14.6661 2.94287 15.0568C3.33351 15.4475 3.86332 15.667 4.41577 15.667H6.91536C7.46781 15.667 7.99762 15.4475 8.38826 15.0568C8.7789 14.6661 8.99835 14.1362 8.99835 13.5837V12.3337C8.99835 11.8734 9.37139 11.5003 9.83155 11.5003C10.2917 11.5003 10.6647 11.8734 10.6647 12.3337V13.5837C10.6647 14.5782 10.2697 15.532 9.56658 16.2353C8.86343 16.9386 7.90976 17.3337 6.91536 17.3337H4.41577C3.42137 17.3337 2.4677 16.9386 1.76455 16.2353C1.06141 15.532 0.666382 14.5782 0.666382 13.5837V4.41699C0.666382 3.42243 1.06141 2.4686 1.76455 1.76534ZM12.5752 5.07774C12.9006 4.7523 13.4281 4.7523 13.7535 5.07774L17.0863 8.41107C17.4117 8.73651 17.4117 9.26414 17.0863 9.58958L13.7535 12.9229C13.4281 13.2484 12.9006 13.2484 12.5752 12.9229C12.2498 12.5975 12.2498 12.0698 12.5752 11.7444L14.4856 9.83366H4.83237C4.37221 9.83366 3.99917 9.46056 3.99917 9.00033C3.99917 8.54009 4.37221 8.16699 4.83237 8.16699H14.4856L12.5752 6.25625C12.2498 5.93081 12.2498 5.40317 12.5752 5.07774Z" fill="#99999D"/>
</svg>
