<svg width="33" height="32" viewBox="0 0 33 32" fill="none" xmlns="http://www.w3.org/2000/svg">
<path d="M16.8709 32C25.7645 32 32.9742 24.8366 32.9742 16C32.9742 7.16344 25.7645 0 16.8709 0C7.97736 0 0.7677 7.16344 0.7677 16C0.7677 24.8366 7.97736 32 16.8709 32Z" fill="#32323A"/>
<path d="M14.245 22.9747C20.4782 22.9747 23.8863 17.6085 23.8863 12.9553C23.8863 12.8027 23.883 12.6509 23.8764 12.4999C24.5441 11.9965 25.1164 11.3792 25.5668 10.6768C24.9512 10.9611 24.2948 11.1482 23.6212 11.2314C24.3356 10.7801 24.8631 10.0888 25.1076 9.28352C24.4465 9.69206 23.718 9.98149 22.9556 10.1385C22.6452 9.7897 22.2639 9.51021 21.8369 9.31843C21.4098 9.12665 20.9468 9.02695 20.4782 9.02588C19.5595 9.0474 18.687 9.43025 18.0522 10.0904C17.4174 10.7505 17.0722 11.6339 17.0924 12.5467C17.0917 12.8169 17.121 13.0863 17.1799 13.35C15.8188 13.271 14.4907 12.9015 13.2863 12.2666C12.0818 11.6317 11.0292 10.7463 10.2002 9.67081C9.89709 10.2121 9.73819 10.8213 9.73856 11.4407C9.7345 12.0139 9.86968 12.5796 10.1326 13.0898C10.3956 13.6001 10.7785 14.0397 11.249 14.3715C10.7087 14.3539 10.1813 14.2028 9.71461 13.9318C9.71461 13.9465 9.71461 13.9613 9.71461 13.9769C9.70209 14.7742 9.96503 15.5517 10.4596 16.1797C10.9541 16.8077 11.6504 17.2483 12.4323 17.428C11.9345 17.5695 11.4097 17.5903 10.9021 17.4887C11.1028 18.1759 11.517 18.7825 12.0855 19.2218C12.654 19.6611 13.3477 19.9106 14.0674 19.9347C13.375 20.504 12.573 20.9269 11.7103 21.1776C10.8477 21.4283 9.94272 21.5015 9.05066 21.3927C10.5848 22.4226 12.3936 22.9734 14.245 22.9747Z" fill="white"/>
</svg>
