<svg width="17" height="18" viewBox="0 0 17 18" fill="none" xmlns="http://www.w3.org/2000/svg">
<path fill-rule="evenodd" clip-rule="evenodd" d="M5.16699 0.666687C5.62723 0.666687 6.00033 1.03978 6.00033 1.50002V1.91669H11.0003V1.50002C11.0003 1.03978 11.3734 0.666687 11.8337 0.666687C12.2939 0.666687 12.667 1.03978 12.667 1.50002V1.91669C14.9682 1.91669 16.8337 3.78217 16.8337 6.08335V13.1667C16.8337 15.4679 14.9682 17.3334 12.667 17.3334H4.33366C2.03247 17.3334 0.166992 15.4679 0.166992 13.1667V6.08335C0.166992 3.78217 2.03247 1.91669 4.33366 1.91669V1.50002C4.33366 1.03978 4.70675 0.666687 5.16699 0.666687ZM4.33366 3.58335C2.95295 3.58335 1.83366 4.70264 1.83366 6.08335V13.1667C1.83366 14.5474 2.95295 15.6667 4.33366 15.6667H12.667C14.0477 15.6667 15.167 14.5474 15.167 13.1667V6.08335C15.167 4.70264 14.0477 3.58335 12.667 3.58335V4.00002C12.667 4.46026 12.2939 4.83335 11.8337 4.83335C11.3734 4.83335 11.0003 4.46026 11.0003 4.00002V3.58335H6.00033V4.00002C6.00033 4.46026 5.62723 4.83335 5.16699 4.83335C4.70675 4.83335 4.33366 4.46026 4.33366 4.00002V3.58335ZM4.33366 9.00002C4.33366 8.53978 4.70675 8.16669 5.16699 8.16669H11.8337C12.2939 8.16669 12.667 8.53978 12.667 9.00002C12.667 9.46026 12.2939 9.83335 11.8337 9.83335H5.16699C4.70675 9.83335 4.33366 9.46026 4.33366 9.00002ZM4.33366 12.3334C4.33366 11.8731 4.70675 11.5 5.16699 11.5H9.33366C9.7939 11.5 10.167 11.8731 10.167 12.3334C10.167 12.7936 9.7939 13.1667 9.33366 13.1667H5.16699C4.70675 13.1667 4.33366 12.7936 4.33366 12.3334Z" fill="#99999D"/>
</svg>
