<svg width="131" height="32" viewBox="0 0 131 32" fill="none" xmlns="http://www.w3.org/2000/svg">
<g clip-path="url(#clip0_1304_577)">
<path d="M31.9995 16C32.0022 17.8932 31.6307 19.7683 30.9062 21.5175C30.1818 23.2666 29.1187 24.8553 27.7782 26.1922L26.1924 27.7779C24.8554 29.1185 23.2667 30.1816 21.5174 30.9061C19.7682 31.6307 17.8931 32.0023 15.9998 31.9998C16.6686 31.9998 17.331 31.868 17.949 31.612C18.5669 31.3561 19.1284 30.9809 19.6014 30.5079C20.0744 30.0349 20.4496 29.4734 20.7056 28.8554C20.9615 28.2375 21.0933 27.5751 21.0933 26.9062C21.0933 26.2374 20.9615 25.575 20.7056 24.957C20.4496 24.3391 20.0744 23.7776 19.6014 23.3046C19.1284 22.8316 18.5669 22.4564 17.949 22.2004C17.331 21.9445 16.6686 21.8127 15.9998 21.8127C16.555 21.8139 17.1049 21.7051 17.6179 21.4927C18.1308 21.2802 18.5966 20.9683 18.9884 20.5749L20.5742 18.9891C20.9675 18.5972 21.2794 18.1313 21.492 17.6183C21.7045 17.1053 21.8134 16.5553 21.8125 16C21.8125 16.6689 21.9442 17.3312 22.2002 17.9492C22.4562 18.5672 22.8314 19.1287 23.3043 19.6017C23.7773 20.0746 24.3388 20.4498 24.9568 20.7058C25.5748 20.9618 26.2371 21.0935 26.906 21.0935C27.5749 21.0935 28.2372 20.9618 28.8552 20.7058C29.4732 20.4498 30.0347 20.0746 30.5077 19.6017C30.9806 19.1287 31.3558 18.5672 31.6118 17.9492C31.8678 17.3312 31.9995 16.6689 31.9995 16Z" fill="#FFAC52"/>
<path d="M10.1871 16C10.1861 16.5553 10.2949 17.1052 10.5073 17.6182C10.7198 18.1312 11.0316 18.5972 11.4249 18.9891L13.0106 20.5749C13.4025 20.9683 13.8684 21.2803 14.3814 21.4927C14.8944 21.7052 15.4445 21.8139 15.9998 21.8127C14.6489 21.8127 13.3533 22.3494 12.3981 23.3046C11.4429 24.2598 10.9062 25.5554 10.9062 26.9062C10.9062 28.2571 11.4429 29.5527 12.3981 30.5079C13.3533 31.4631 14.6489 31.9998 15.9998 31.9998C14.1066 32.0023 12.2315 31.6307 10.4824 30.9063C8.73326 30.1818 7.14456 29.1188 5.80759 27.7784L4.22184 26.1927C2.88156 24.8556 1.81881 23.2667 1.09467 21.5175C0.370539 19.7683 -0.000687349 17.8932 0.00233768 16C0.00233768 17.3509 0.538976 18.6464 1.4942 19.6017C2.44942 20.5569 3.74498 21.0935 5.09586 21.0935C6.44675 21.0935 7.74231 20.5569 8.69753 19.6017C9.65275 18.6464 10.1894 17.3509 10.1894 16H10.1871Z" fill="#FFAC52"/>
<path d="M15.9998 0.00214264C17.8929 -0.000192912 19.7679 0.371532 21.517 1.09596C23.2661 1.8204 24.8548 2.88326 26.1919 4.22351L27.7777 5.80926C29.1181 7.14588 30.1811 8.73425 30.9057 10.4831C31.6302 12.2319 32.0019 14.1066 31.9995 15.9996C31.9995 15.3307 31.8678 14.6683 31.6118 14.0504C31.3558 13.4324 30.9806 12.8709 30.5077 12.3979C30.0347 11.9249 29.4732 11.5497 28.8552 11.2938C28.2372 11.0378 27.5749 10.906 26.906 10.906C26.2371 10.906 25.5748 11.0378 24.9568 11.2938C24.3388 11.5497 23.7773 11.9249 23.3043 12.3979C22.8314 12.8709 22.4562 13.4324 22.2002 14.0504C21.9442 14.6683 21.8125 15.3307 21.8125 15.9996C21.8134 15.4445 21.7045 14.8948 21.4921 14.382C21.2796 13.8693 20.9678 13.4036 20.5747 13.0118L18.9889 11.4261C18.5971 11.0325 18.1313 10.7203 17.6182 10.5076C17.1052 10.2949 16.5551 10.1859 15.9998 10.1869C16.6777 10.2014 17.3516 10.0804 17.9822 9.83098C18.6127 9.58159 19.1871 9.2088 19.6717 8.7345C20.1562 8.26019 20.5412 7.69391 20.804 7.06886C21.0669 6.44381 21.2023 5.77257 21.2023 5.0945C21.2023 4.41644 21.0669 3.7452 20.804 3.12015C20.5412 2.4951 20.1562 1.92882 19.6717 1.45451C19.1871 0.980203 18.6127 0.607421 17.9822 0.358024C17.3516 0.108627 16.6777 -0.0123651 15.9998 0.00214264Z" fill="#23CD5D"/>
<path d="M0.00232575 15.9999C-0.000270128 14.1068 0.37134 12.2319 1.09579 10.4829C1.82024 8.73394 2.88325 7.14541 4.22369 5.80864L5.80944 4.22288C7.14632 2.88291 8.73476 1.82026 10.4835 1.09599C12.2323 0.371715 14.1069 8.73152e-05 15.9998 0.00245263C14.6489 0.00245263 13.3533 0.539091 12.3981 1.49431C11.4429 2.44953 10.9062 3.74509 10.9062 5.09598C10.9062 6.44687 11.4429 7.74243 12.3981 8.69765C13.3533 9.65287 14.6489 10.1895 15.9998 10.1895C15.4445 10.1886 14.8945 10.2975 14.3816 10.5101C13.8687 10.7227 13.4029 11.0348 13.0111 11.4283L11.4253 13.014C11.0323 13.4055 10.7206 13.8709 10.508 14.3833C10.2955 14.8957 10.1864 15.4451 10.187 15.9999C10.2016 15.322 10.0806 14.648 9.83117 14.0175C9.58177 13.3869 9.20899 12.8125 8.73468 12.328C8.26037 11.8434 7.69409 11.4584 7.06904 11.1956C6.44399 10.9328 5.77275 10.7974 5.09469 10.7974C4.41662 10.7974 3.74538 10.9328 3.12033 11.1956C2.49528 11.4584 1.929 11.8434 1.45469 12.328C0.980386 12.8125 0.607605 13.3869 0.358207 14.0175C0.10881 14.648 -0.012182 15.322 0.00232575 15.9999Z" fill="#23CD5D"/>
<path d="M10.9063 5.0941C10.9059 6.10159 11.2043 7.08655 11.7638 7.92442C12.3232 8.76229 13.1186 9.41544 14.0493 9.80124C14.98 10.187 16.0042 10.2882 16.9923 10.0919C17.9805 9.89553 18.8883 9.41056 19.6008 8.6983C20.3133 7.98603 20.7986 7.07845 20.9953 6.09035C21.192 5.10225 21.0912 4.07802 20.7058 3.14719C20.3203 2.21636 19.6675 1.42075 18.8298 0.860986C17.9921 0.301219 17.0073 0.0024415 15.9998 0.00244143C14.6492 0.0023177 13.3538 0.538659 12.3986 1.4935C11.4434 2.44835 10.9066 3.7435 10.9063 5.0941Z" fill="#23CD5D"/>
<path d="M10.9067 26.906C10.9067 27.9135 11.2054 28.8983 11.7651 29.7359C12.3248 30.5735 13.1204 31.2264 14.0511 31.6119C14.9819 31.9974 16.006 32.0982 16.9941 31.9016C17.9821 31.7051 18.8897 31.2199 19.602 30.5075C20.3144 29.7951 20.7994 28.8875 20.9959 27.8994C21.1924 26.9114 21.0915 25.8872 20.7059 24.9565C20.3203 24.0258 19.6674 23.2303 18.8297 22.6707C17.992 22.1111 17.0072 21.8124 15.9997 21.8125C14.6489 21.8126 13.3535 22.3493 12.3984 23.3045C11.4433 24.2597 10.9067 25.5552 10.9067 26.906Z" fill="#FFAC52"/>
<path d="M0.00231936 15.9998C0.00231946 17.0073 0.301109 17.9922 0.860896 18.8298C1.42068 19.6675 2.21632 20.3204 3.14718 20.7058C4.07803 21.0913 5.10229 21.192 6.0904 20.9953C7.07851 20.7985 7.98609 20.3132 8.69834 19.6006C9.41059 18.888 9.89552 17.9802 10.0918 16.992C10.2881 16.0038 10.1869 14.9796 9.80098 14.049C9.41511 13.1183 8.7619 12.3229 7.92396 11.7635C7.08603 11.2041 6.10102 10.9058 5.09351 10.9063C3.74299 10.9067 2.44796 11.4436 1.49322 12.3988C0.538473 13.354 0.00219559 14.6493 0.00231936 15.9998Z" fill="#32323A"/>
<path d="M21.8125 15.9998C21.8125 17.0072 22.1112 17.992 22.6709 18.8296C23.2306 19.6672 24.0261 20.3201 24.9568 20.7056C25.8875 21.0911 26.9117 21.192 27.8997 20.9954C28.8878 20.7989 29.7954 20.3138 30.5077 19.6014C31.22 18.8891 31.7051 17.9815 31.9017 16.9935C32.0982 16.0054 31.9973 14.9813 31.6118 14.0506C31.2263 13.1199 30.5735 12.3243 29.7358 11.7647C28.8982 11.205 27.9134 10.9062 26.906 10.9062C25.5551 10.9062 24.2596 11.4429 23.3044 12.3981C22.3491 13.3533 21.8125 14.6489 21.8125 15.9998Z" fill="#32323A"/>
</g>
<path d="M51.0469 22.4922C52.7148 22.4922 54.0365 21.877 55.0117 20.6465C55.9961 19.416 56.4883 17.666 56.4883 15.3965C56.4883 13.1361 55.9961 11.3906 55.0117 10.1602C54.0365 8.92057 52.7148 8.30078 51.0469 8.30078C49.3789 8.30078 48.0482 8.91602 47.0547 10.1465C46.0612 11.377 45.5645 13.127 45.5645 15.3965C45.5645 17.666 46.0612 19.416 47.0547 20.6465C48.0482 21.877 49.3789 22.4922 51.0469 22.4922ZM60.6992 15.3965C60.6992 19.015 59.6829 21.7858 57.6504 23.709C56.1283 25.2767 53.9271 26.0605 51.0469 26.0605C48.1667 26.0605 45.9655 25.2767 44.4434 23.709C42.4017 21.7858 41.3809 19.015 41.3809 15.3965C41.3809 11.7051 42.4017 8.93424 44.4434 7.08398C45.9655 5.51628 48.1667 4.73242 51.0469 4.73242C53.9271 4.73242 56.1283 5.51628 57.6504 7.08398C59.6829 8.93424 60.6992 11.7051 60.6992 15.3965ZM71.6641 10.2695C73.6237 10.2695 75.1549 10.9759 76.2578 12.3887C77.3698 13.8014 77.9258 15.6243 77.9258 17.8574C77.9258 20.1725 77.3789 22.0911 76.2852 23.6133C75.1914 25.1354 73.6647 25.8965 71.7051 25.8965C70.4746 25.8965 69.4857 25.6504 68.7383 25.1582C68.2917 24.8665 67.8086 24.3561 67.2891 23.627V25.5H63.4746V5.375H67.3574V12.5391C67.8496 11.8464 68.3919 11.3177 68.9844 10.9531C69.6862 10.4974 70.5794 10.2695 71.6641 10.2695ZM70.666 22.6836C71.6686 22.6836 72.4479 22.278 73.0039 21.4668C73.5599 20.6556 73.8379 19.5892 73.8379 18.2676C73.8379 17.2103 73.7012 16.3353 73.4277 15.6426C72.9082 14.3301 71.9512 13.6738 70.5566 13.6738C69.1439 13.6738 68.1732 14.3164 67.6445 15.6016C67.3711 16.2852 67.2344 17.1693 67.2344 18.2539C67.2344 19.5299 67.5169 20.5872 68.082 21.4258C68.6471 22.2643 69.5085 22.6836 70.666 22.6836ZM87.4141 22.752C88.5534 22.752 89.4284 22.3464 90.0391 21.5352C90.6497 20.724 90.9551 19.571 90.9551 18.0762C90.9551 16.5814 90.6497 15.4329 90.0391 14.6309C89.4284 13.8197 88.5534 13.4141 87.4141 13.4141C86.2747 13.4141 85.3952 13.8197 84.7754 14.6309C84.1647 15.4329 83.8594 16.5814 83.8594 18.0762C83.8594 19.571 84.1647 20.724 84.7754 21.5352C85.3952 22.3464 86.2747 22.752 87.4141 22.752ZM95.043 18.0762C95.043 20.2637 94.4141 22.1367 93.1562 23.6953C91.8984 25.2448 89.9889 26.0195 87.4277 26.0195C84.8665 26.0195 82.957 25.2448 81.6992 23.6953C80.4414 22.1367 79.8125 20.2637 79.8125 18.0762C79.8125 15.9251 80.4414 14.0612 81.6992 12.4844C82.957 10.9076 84.8665 10.1191 87.4277 10.1191C89.9889 10.1191 91.8984 10.9076 93.1562 12.4844C94.4141 14.0612 95.043 15.9251 95.043 18.0762ZM103.342 10.2422C104.244 10.2422 105.046 10.4427 105.748 10.8438C106.45 11.2357 107.02 11.7826 107.457 12.4844V5.375H111.408V25.5H107.621V23.4355C107.065 24.3197 106.432 24.9622 105.721 25.3633C105.01 25.7643 104.126 25.9648 103.068 25.9648C101.327 25.9648 99.86 25.263 98.666 23.8594C97.4811 22.4466 96.8887 20.6374 96.8887 18.4316C96.8887 15.8887 97.472 13.888 98.6387 12.4297C99.8145 10.9714 101.382 10.2422 103.342 10.2422ZM104.189 22.6836C105.292 22.6836 106.131 22.2734 106.705 21.4531C107.279 20.6328 107.566 19.571 107.566 18.2676C107.566 16.4447 107.106 15.1413 106.186 14.3574C105.62 13.8835 104.964 13.6465 104.217 13.6465C103.077 13.6465 102.239 14.0794 101.701 14.9453C101.173 15.8021 100.908 16.8685 100.908 18.1445C100.908 19.5208 101.177 20.6237 101.715 21.4531C102.262 22.2734 103.087 22.6836 104.189 22.6836ZM121.648 22.752C122.788 22.752 123.663 22.3464 124.273 21.5352C124.884 20.724 125.189 19.571 125.189 18.0762C125.189 16.5814 124.884 15.4329 124.273 14.6309C123.663 13.8197 122.788 13.4141 121.648 13.4141C120.509 13.4141 119.63 13.8197 119.01 14.6309C118.399 15.4329 118.094 16.5814 118.094 18.0762C118.094 19.571 118.399 20.724 119.01 21.5352C119.63 22.3464 120.509 22.752 121.648 22.752ZM129.277 18.0762C129.277 20.2637 128.648 22.1367 127.391 23.6953C126.133 25.2448 124.223 26.0195 121.662 26.0195C119.101 26.0195 117.191 25.2448 115.934 23.6953C114.676 22.1367 114.047 20.2637 114.047 18.0762C114.047 15.9251 114.676 14.0612 115.934 12.4844C117.191 10.9076 119.101 10.1191 121.662 10.1191C124.223 10.1191 126.133 10.9076 127.391 12.4844C128.648 14.0612 129.277 15.9251 129.277 18.0762Z" fill="#32323A"/>
<defs>
<clipPath id="clip0_1304_577">
<rect width="32" height="32" fill="white"/>
</clipPath>
</defs>
</svg>
