<svg width="95" height="325" viewBox="0 0 95 325" fill="none" xmlns="http://www.w3.org/2000/svg">
<circle cx="47.5" cy="277.5" r="47.5" fill="#32323A"/>
<path d="M56.8969 289H39.1031C37.3873 289 36 287.609 36 285.897V270.286C36 268.57 37.3909 267.183 39.1031 267.183H56.8932C58.6091 267.183 59.9963 268.574 59.9963 270.286V285.897C60 287.609 58.6091 289 56.8969 289Z" stroke="white" stroke-width="2.5" stroke-miterlimit="10" stroke-linecap="round" stroke-linejoin="round"/>
<path d="M41.4541 265V269.363" stroke="white" stroke-width="2.5" stroke-miterlimit="10" stroke-linecap="round" stroke-linejoin="round"/>
<path d="M54.5459 265V269.363" stroke="white" stroke-width="2.5" stroke-miterlimit="10" stroke-linecap="round" stroke-linejoin="round"/>
<path d="M41.4541 274.817H54.5457" stroke="white" stroke-width="2.5" stroke-miterlimit="10" stroke-linecap="round" stroke-linejoin="round"/>
<path d="M41.4541 279.183H54.5457" stroke="white" stroke-width="2.5" stroke-miterlimit="10" stroke-linecap="round" stroke-linejoin="round"/>
<path d="M41.4541 283.546H51.271" stroke="white" stroke-width="2.5" stroke-miterlimit="10" stroke-linecap="round" stroke-linejoin="round"/>
<circle cx="47.5" cy="162.5" r="47.5" fill="#32323A"/>
<path d="M58.1029 166.07C53.1485 168.548 46.1751 172.034 40.9834 174.629C38.2926 175.972 35.2952 173.458 36.1495 170.574L39.8918 164.614C40.5124 163.625 40.5124 162.369 39.8918 161.384L36.1495 155.427C35.2915 152.543 38.289 150.029 40.9798 151.372L58.0992 159.927C60.633 161.19 60.633 164.804 58.1029 166.07Z" stroke="white" stroke-width="2.5" stroke-miterlimit="10" stroke-linecap="round" stroke-linejoin="round"/>
<circle cx="47.5" cy="47.5" r="47.5" fill="#23CD5D"/>
<path d="M46.5783 58.9964H39.1027C37.3871 58.9964 36 57.6057 36 55.8938V50.8163C36 47.502 38.6865 44.8154 42.0009 44.8154H43.6873C47.0017 44.8154 49.6882 47.502 49.6882 50.8163V55.8938C49.6846 57.6057 48.2938 58.9964 46.5783 58.9964Z" stroke="white" stroke-width="2.5" stroke-miterlimit="10" stroke-linecap="round" stroke-linejoin="round"/>
<path d="M56.8933 58.9964H52.7394C51.0238 58.9964 49.6367 57.6057 49.6367 55.8938V49.7249C49.6367 47.0128 51.8341 44.8154 54.5462 44.8154H55.0901C57.8022 44.8154 59.9996 47.0128 59.9996 49.7249V55.8938C59.996 57.6057 58.6052 58.9964 56.8933 58.9964Z" stroke="white" stroke-width="2.5" stroke-miterlimit="10" stroke-linecap="round" stroke-linejoin="round"/>
<path d="M42.5447 42.6362C44.6533 42.6362 46.3628 40.9268 46.3628 38.8181C46.3628 36.7094 44.6533 35 42.5447 35C40.436 35 38.7266 36.7094 38.7266 38.8181C38.7266 40.9268 40.436 42.6362 42.5447 42.6362Z" stroke="white" stroke-width="2.5" stroke-miterlimit="10" stroke-linecap="round" stroke-linejoin="round"/>
<path d="M54.8165 42.6032C56.907 42.6032 58.6017 40.9085 58.6017 38.818C58.6017 36.7274 56.907 35.0327 54.8165 35.0327C52.726 35.0327 51.0312 36.7274 51.0312 38.818C51.0312 40.9085 52.726 42.6032 54.8165 42.6032Z" stroke="white" stroke-width="2.5" stroke-miterlimit="10" stroke-linecap="round" stroke-linejoin="round"/>
</svg>
