<svg width="32" height="32" viewBox="0 0 32 32" fill="none" xmlns="http://www.w3.org/2000/svg">
<g clip-path="url(#clip0_1373_31)">
<path d="M31.9998 16C32.0025 17.8932 31.6309 19.7683 30.9065 21.5175C30.182 23.2666 29.119 24.8553 27.7784 26.1922L26.1926 27.7779C24.8557 29.1185 23.2669 30.1816 21.5177 30.9061C19.7685 31.6307 17.8933 32.0023 16 31.9998C16.6689 31.9998 17.3312 31.868 17.9492 31.612C18.5672 31.3561 19.1287 30.9809 19.6017 30.5079C20.0746 30.0349 20.4498 29.4734 20.7058 28.8554C20.9618 28.2375 21.0935 27.5751 21.0935 26.9062C21.0935 26.2374 20.9618 25.575 20.7058 24.957C20.4498 24.3391 20.0746 23.7776 19.6017 23.3046C19.1287 22.8316 18.5672 22.4564 17.9492 22.2004C17.3312 21.9445 16.6689 21.8127 16 21.8127C16.5552 21.8139 17.1052 21.7051 17.6181 21.4927C18.1311 21.2802 18.5969 20.9683 18.9887 20.5749L20.5744 18.9891C20.9678 18.5972 21.2797 18.1313 21.4922 17.6183C21.7047 17.1053 21.8137 16.5553 21.8127 16C21.8127 16.6689 21.9445 17.3312 22.2004 17.9492C22.4564 18.5672 22.8316 19.1287 23.3046 19.6017C23.7776 20.0746 24.3391 20.4498 24.957 20.7058C25.575 20.9618 26.2373 21.0935 26.9062 21.0935C27.5751 21.0935 28.2375 20.9618 28.8554 20.7058C29.4734 20.4498 30.0349 20.0746 30.5079 19.6017C30.9809 19.1287 31.3561 18.5672 31.612 17.9492C31.868 17.3312 31.9998 16.6689 31.9998 16Z" fill="#FFAC52"/>
<path d="M10.1867 16C10.1857 16.5553 10.2945 17.1052 10.507 17.6182C10.7194 18.1312 11.0313 18.5972 11.4245 18.9891L13.0103 20.5749C13.4021 20.9683 13.868 21.2803 14.381 21.4927C14.8941 21.7052 15.4441 21.8139 15.9994 21.8127C14.6485 21.8127 13.353 22.3494 12.3977 23.3046C11.4425 24.2598 10.9059 25.5554 10.9059 26.9062C10.9059 28.2571 11.4425 29.5527 12.3977 30.5079C13.353 31.4631 14.6485 31.9998 15.9994 31.9998C14.1062 32.0023 12.2311 31.6307 10.482 30.9063C8.7329 30.1818 7.14419 29.1188 5.80722 27.7784L4.22147 26.1927C2.8812 24.8556 1.81844 23.2667 1.09431 21.5175C0.370173 19.7683 -0.00105356 17.8932 0.00197146 16C0.00197146 17.3509 0.53861 18.6464 1.49383 19.6017C2.44905 20.5569 3.74461 21.0935 5.0955 21.0935C6.44639 21.0935 7.74194 20.5569 8.69717 19.6017C9.65239 18.6464 10.189 17.3509 10.189 16H10.1867Z" fill="#FFAC52"/>
<path d="M16 0.00214264C17.8932 -0.000192912 19.7682 0.371532 21.5173 1.09596C23.2663 1.8204 24.8551 2.88326 26.1922 4.22351L27.7779 5.80926C29.1184 7.14588 30.1814 8.73425 30.9059 10.4831C31.6304 12.2319 32.0022 14.1066 31.9998 15.9996C31.9998 15.3307 31.868 14.6683 31.612 14.0504C31.3561 13.4324 30.9809 12.8709 30.5079 12.3979C30.0349 11.9249 29.4734 11.5497 28.8554 11.2938C28.2375 11.0378 27.5751 10.906 26.9062 10.906C26.2373 10.906 25.575 11.0378 24.957 11.2938C24.3391 11.5497 23.7776 11.9249 23.3046 12.3979C22.8316 12.8709 22.4564 13.4324 22.2004 14.0504C21.9445 14.6683 21.8127 15.3307 21.8127 15.9996C21.8136 15.4445 21.7047 14.8948 21.4923 14.382C21.2799 13.8693 20.9681 13.4036 20.5749 13.0118L18.9891 11.4261C18.5973 11.0325 18.1315 10.7203 17.6185 10.5076C17.1054 10.2949 16.5554 10.1859 16 10.1869C16.6779 10.2014 17.3519 10.0804 17.9824 9.83098C18.613 9.58159 19.1873 9.2088 19.6719 8.7345C20.1565 8.26019 20.5415 7.69391 20.8043 7.06886C21.0671 6.44381 21.2025 5.77257 21.2025 5.0945C21.2025 4.41644 21.0671 3.7452 20.8043 3.12015C20.5415 2.4951 20.1565 1.92882 19.6719 1.45451C19.1873 0.980203 18.613 0.607421 17.9824 0.358024C17.3519 0.108627 16.6779 -0.0123651 16 0.00214264Z" fill="#23CD5D"/>
<path d="M0.00214264 15.9999C-0.000453234 14.1068 0.371157 12.2319 1.09561 10.4829C1.82006 8.73394 2.88306 7.14541 4.22351 5.80864L5.80926 4.22288C7.14613 2.88291 8.73458 1.82026 10.4833 1.09599C12.2321 0.371715 14.1068 8.73152e-05 15.9996 0.00245263C14.6487 0.00245263 13.3531 0.539091 12.3979 1.49431C11.4427 2.44953 10.906 3.74509 10.906 5.09598C10.906 6.44687 11.4427 7.74243 12.3979 8.69765C13.3531 9.65287 14.6487 10.1895 15.9996 10.1895C15.4443 10.1886 14.8944 10.2975 14.3814 10.5101C13.8685 10.7227 13.4027 11.0348 13.0109 11.4283L11.4251 13.014C11.0321 13.4055 10.7204 13.8709 10.5079 14.3833C10.2953 14.8957 10.1863 15.4451 10.1869 15.9999C10.2014 15.322 10.0804 14.648 9.83098 14.0175C9.58159 13.3869 9.2088 12.8125 8.7345 12.328C8.26019 11.8434 7.69391 11.4584 7.06886 11.1956C6.44381 10.9328 5.77257 10.7974 5.0945 10.7974C4.41644 10.7974 3.7452 10.9328 3.12015 11.1956C2.4951 11.4584 1.92882 11.8434 1.45451 12.328C0.980203 12.8125 0.607421 13.3869 0.358024 14.0175C0.108627 14.648 -0.0123651 15.322 0.00214264 15.9999Z" fill="#23CD5D"/>
<path d="M10.9063 5.0941C10.9059 6.10159 11.2043 7.08655 11.7638 7.92442C12.3232 8.76229 13.1186 9.41544 14.0493 9.80124C14.98 10.187 16.0042 10.2882 16.9923 10.0919C17.9805 9.89553 18.8883 9.41056 19.6008 8.6983C20.3133 7.98603 20.7986 7.07845 20.9953 6.09035C21.192 5.10225 21.0912 4.07802 20.7058 3.14719C20.3203 2.21636 19.6675 1.42075 18.8298 0.860986C17.9921 0.301219 17.0073 0.0024415 15.9998 0.00244143C14.6492 0.0023177 13.3538 0.538659 12.3986 1.4935C11.4434 2.44835 10.9066 3.7435 10.9063 5.0941Z" fill="#23CD5D"/>
<path d="M10.9062 26.906C10.9063 27.9135 11.205 28.8983 11.7647 29.7359C12.3244 30.5735 13.1199 31.2264 14.0507 31.6119C14.9814 31.9974 16.0056 32.0982 16.9936 31.9016C17.9817 31.7051 18.8893 31.2199 19.6016 30.5075C20.3139 29.7951 20.799 28.8875 20.9955 27.8994C21.192 26.9114 21.091 25.8872 20.7054 24.9565C20.3199 24.0258 19.6669 23.2303 18.8293 22.6707C17.9916 22.1111 17.0067 21.8124 15.9993 21.8125C14.6485 21.8126 13.3531 22.3493 12.3979 23.3045C11.4428 24.2597 10.9062 25.5552 10.9062 26.906Z" fill="#FFAC52"/>
<path d="M0.00195315 15.9998C0.00195325 17.0073 0.300743 17.9922 0.86053 18.8298C1.42032 19.6675 2.21596 20.3204 3.14681 20.7058C4.07767 21.0913 5.10192 21.192 6.09004 20.9953C7.07815 20.7985 7.98572 20.3132 8.69797 19.6006C9.41022 18.888 9.89515 17.9802 10.0914 16.992C10.2877 16.0038 10.1865 14.9796 9.80062 14.049C9.41474 13.1183 8.76153 12.3229 7.9236 11.7635C7.08566 11.2041 6.10065 10.9058 5.09315 10.9063C3.74263 10.9067 2.4476 11.4436 1.49285 12.3988C0.538107 13.354 0.00182938 14.6493 0.00195315 15.9998Z" fill="#32323A"/>
<path d="M21.8125 15.9998C21.8125 17.0072 22.1112 17.992 22.6709 18.8296C23.2306 19.6672 24.0261 20.3201 24.9568 20.7056C25.8875 21.0911 26.9117 21.192 27.8997 20.9954C28.8878 20.7989 29.7954 20.3138 30.5077 19.6014C31.22 18.8891 31.7051 17.9815 31.9017 16.9935C32.0982 16.0054 31.9973 14.9813 31.6118 14.0506C31.2263 13.1199 30.5735 12.3243 29.7358 11.7647C28.8982 11.205 27.9134 10.9062 26.906 10.9062C25.5551 10.9062 24.2596 11.4429 23.3044 12.3981C22.3491 13.3533 21.8125 14.6489 21.8125 15.9998Z" fill="#32323A"/>
</g>
<defs>
<clipPath id="clip0_1373_31">
<rect width="32" height="32" fill="white"/>
</clipPath>
</defs>
</svg>
