<svg width="375" height="376" viewBox="0 0 375 376" fill="none" xmlns="http://www.w3.org/2000/svg">
<rect y="144" width="375" height="232" rx="20" fill="white"/>
<path d="M296.232 201C296.277 200.157 296.451 199.423 296.751 198.799C297.057 198.174 297.649 197.607 298.529 197.097L299.841 196.338C300.429 195.996 300.842 195.704 301.079 195.463C301.452 195.085 301.639 194.652 301.639 194.164C301.639 193.594 301.468 193.143 301.126 192.811C300.785 192.473 300.329 192.305 299.759 192.305C298.916 192.305 298.333 192.624 298.009 193.262C297.836 193.604 297.74 194.077 297.722 194.684H296.471C296.485 193.831 296.642 193.136 296.943 192.599C297.476 191.651 298.417 191.177 299.766 191.177C300.887 191.177 301.705 191.48 302.22 192.086C302.74 192.692 302.999 193.367 302.999 194.109C302.999 194.893 302.724 195.563 302.172 196.119C301.853 196.443 301.281 196.835 300.456 197.295L299.52 197.814C299.073 198.061 298.722 198.295 298.467 198.519C298.012 198.915 297.724 199.355 297.606 199.838H302.952V201H296.232ZM308.386 193.679H309.603V194.718C309.895 194.358 310.159 194.096 310.396 193.932C310.802 193.654 311.262 193.515 311.777 193.515C312.36 193.515 312.83 193.658 313.185 193.945C313.386 194.109 313.568 194.351 313.732 194.67C314.005 194.278 314.327 193.989 314.696 193.802C315.065 193.61 315.48 193.515 315.94 193.515C316.924 193.515 317.594 193.87 317.95 194.581C318.141 194.964 318.237 195.479 318.237 196.126V201H316.958V195.914C316.958 195.426 316.835 195.091 316.589 194.909C316.348 194.727 316.052 194.636 315.701 194.636C315.218 194.636 314.801 194.798 314.45 195.121C314.103 195.445 313.93 195.985 313.93 196.741V201H312.679V196.222C312.679 195.725 312.62 195.363 312.501 195.135C312.315 194.793 311.966 194.622 311.456 194.622C310.991 194.622 310.567 194.802 310.184 195.162C309.806 195.522 309.617 196.174 309.617 197.117V201H308.386V193.679ZM320.048 193.713H321.299V201H320.048V193.713ZM320.048 190.958H321.299V192.353H320.048V190.958ZM323.165 193.679H324.334V194.718C324.681 194.289 325.048 193.982 325.435 193.795C325.822 193.608 326.253 193.515 326.727 193.515C327.766 193.515 328.468 193.877 328.832 194.602C329.033 194.998 329.133 195.565 329.133 196.304V201H327.882V196.386C327.882 195.939 327.816 195.579 327.684 195.306C327.465 194.85 327.069 194.622 326.495 194.622C326.203 194.622 325.964 194.652 325.777 194.711C325.44 194.811 325.143 195.012 324.888 195.312C324.683 195.554 324.549 195.805 324.485 196.064C324.426 196.32 324.396 196.687 324.396 197.165V201H323.165V193.679ZM331.69 198.703C331.726 199.113 331.829 199.428 331.998 199.646C332.307 200.043 332.845 200.241 333.611 200.241C334.067 200.241 334.468 200.143 334.814 199.947C335.16 199.747 335.333 199.439 335.333 199.024C335.333 198.71 335.194 198.471 334.916 198.307C334.739 198.206 334.388 198.09 333.864 197.958L332.886 197.712C332.262 197.557 331.802 197.384 331.505 197.192C330.977 196.86 330.712 196.399 330.712 195.812C330.712 195.119 330.961 194.558 331.457 194.13C331.959 193.701 332.631 193.487 333.474 193.487C334.577 193.487 335.372 193.811 335.86 194.458C336.165 194.868 336.313 195.31 336.304 195.784H335.142C335.119 195.506 335.021 195.253 334.848 195.025C334.566 194.702 334.076 194.54 333.378 194.54C332.914 194.54 332.56 194.629 332.319 194.807C332.082 194.984 331.963 195.219 331.963 195.511C331.963 195.83 332.121 196.085 332.435 196.276C332.617 196.39 332.886 196.491 333.242 196.577L334.055 196.775C334.939 196.99 335.532 197.197 335.832 197.397C336.311 197.712 336.55 198.206 336.55 198.881C336.55 199.533 336.302 200.095 335.805 200.569C335.313 201.043 334.561 201.28 333.549 201.28C332.46 201.28 331.688 201.034 331.232 200.542C330.781 200.045 330.539 199.432 330.507 198.703H331.69Z" fill="#99999D"/>
<path d="M105.696 212.148V213.174H102.796V220.756H101.612V213.174H98.7115V212.148H105.696ZM107.782 220.076C108.481 220.076 108.96 219.812 109.217 219.285C109.479 218.754 109.61 218.164 109.61 217.516C109.61 216.93 109.516 216.453 109.329 216.086C109.032 215.508 108.52 215.219 107.794 215.219C107.149 215.219 106.68 215.465 106.387 215.957C106.094 216.449 105.948 217.043 105.948 217.738C105.948 218.406 106.094 218.963 106.387 219.408C106.68 219.854 107.145 220.076 107.782 220.076ZM107.823 214.299C108.631 214.299 109.315 214.568 109.874 215.107C110.432 215.646 110.712 216.439 110.712 217.486C110.712 218.498 110.465 219.334 109.973 219.994C109.481 220.654 108.717 220.984 107.682 220.984C106.819 220.984 106.133 220.693 105.626 220.111C105.118 219.525 104.864 218.74 104.864 217.756C104.864 216.701 105.131 215.861 105.667 215.236C106.202 214.611 106.921 214.299 107.823 214.299ZM112.528 214.562H113.753V215.84H112.528V214.562ZM112.528 219.479H113.753V220.756H112.528V219.479Z" fill="#99999D"/>
<path d="M121.264 214.34C121.71 214.34 122.141 214.445 122.559 214.656C122.977 214.863 123.296 215.133 123.514 215.465C123.725 215.781 123.866 216.15 123.936 216.572C123.999 216.861 124.03 217.322 124.03 217.955H119.43C119.45 218.592 119.6 219.104 119.881 219.49C120.163 219.873 120.598 220.064 121.188 220.064C121.739 220.064 122.178 219.883 122.506 219.52C122.694 219.309 122.827 219.064 122.905 218.787H123.942C123.915 219.018 123.823 219.275 123.667 219.561C123.514 219.842 123.342 220.072 123.151 220.252C122.831 220.564 122.434 220.775 121.962 220.885C121.708 220.947 121.421 220.979 121.1 220.979C120.319 220.979 119.657 220.695 119.114 220.129C118.571 219.559 118.299 218.762 118.299 217.738C118.299 216.73 118.573 215.912 119.12 215.283C119.667 214.654 120.381 214.34 121.264 214.34ZM122.946 217.117C122.903 216.66 122.803 216.295 122.647 216.021C122.358 215.514 121.876 215.26 121.2 215.26C120.715 215.26 120.309 215.436 119.981 215.787C119.653 216.135 119.479 216.578 119.46 217.117H122.946ZM125.249 212.119H126.274V215.242C126.505 214.941 126.78 214.713 127.1 214.557C127.421 214.396 127.768 214.316 128.143 214.316C128.924 214.316 129.557 214.586 130.042 215.125C130.53 215.66 130.774 216.451 130.774 217.498C130.774 218.49 130.534 219.314 130.053 219.971C129.573 220.627 128.907 220.955 128.055 220.955C127.579 220.955 127.176 220.84 126.848 220.609C126.653 220.473 126.444 220.254 126.221 219.953V220.756H125.249V212.119ZM127.991 220.023C128.561 220.023 128.987 219.797 129.268 219.344C129.553 218.891 129.696 218.293 129.696 217.551C129.696 216.891 129.553 216.344 129.268 215.91C128.987 215.477 128.571 215.26 128.02 215.26C127.54 215.26 127.118 215.438 126.755 215.793C126.395 216.148 126.215 216.734 126.215 217.551C126.215 218.141 126.29 218.619 126.438 218.986C126.715 219.678 127.233 220.023 127.991 220.023ZM132.01 214.51H133.083V220.756H132.01V214.51ZM132.01 212.148H133.083V213.344H132.01V212.148ZM134.659 212.148H135.672V217.146L138.38 214.48H139.727L137.325 216.83L139.862 220.756H138.514L136.557 217.592L135.672 218.4V220.756H134.659V212.148ZM143.296 214.34C143.741 214.34 144.172 214.445 144.59 214.656C145.008 214.863 145.327 215.133 145.546 215.465C145.756 215.781 145.897 216.15 145.967 216.572C146.03 216.861 146.061 217.322 146.061 217.955H141.462C141.481 218.592 141.631 219.104 141.913 219.49C142.194 219.873 142.63 220.064 143.219 220.064C143.77 220.064 144.21 219.883 144.538 219.52C144.725 219.309 144.858 219.064 144.936 218.787H145.973C145.946 219.018 145.854 219.275 145.698 219.561C145.546 219.842 145.374 220.072 145.182 220.252C144.862 220.564 144.465 220.775 143.993 220.885C143.739 220.947 143.452 220.979 143.131 220.979C142.35 220.979 141.688 220.695 141.145 220.129C140.602 219.559 140.331 218.762 140.331 217.738C140.331 216.73 140.604 215.912 141.151 215.283C141.698 214.654 142.413 214.34 143.296 214.34ZM144.977 217.117C144.934 216.66 144.835 216.295 144.678 216.021C144.389 215.514 143.907 215.26 143.231 215.26C142.747 215.26 142.34 215.436 142.012 215.787C141.684 216.135 141.51 216.578 141.491 217.117H144.977ZM147.362 214.48H148.405V215.371C148.655 215.062 148.881 214.838 149.085 214.697C149.432 214.459 149.827 214.34 150.268 214.34C150.768 214.34 151.171 214.463 151.475 214.709C151.647 214.85 151.803 215.057 151.944 215.33C152.178 214.994 152.454 214.746 152.77 214.586C153.087 214.422 153.442 214.34 153.837 214.34C154.68 214.34 155.255 214.645 155.559 215.254C155.723 215.582 155.805 216.023 155.805 216.578V220.756H154.71V216.396C154.71 215.979 154.604 215.691 154.393 215.535C154.186 215.379 153.932 215.301 153.631 215.301C153.217 215.301 152.86 215.439 152.559 215.717C152.262 215.994 152.114 216.457 152.114 217.105V220.756H151.042V216.66C151.042 216.234 150.991 215.924 150.889 215.729C150.729 215.436 150.43 215.289 149.993 215.289C149.594 215.289 149.231 215.443 148.903 215.752C148.579 216.061 148.417 216.619 148.417 217.428V220.756H147.362V214.48ZM159.848 220.076C160.547 220.076 161.026 219.812 161.284 219.285C161.546 218.754 161.676 218.164 161.676 217.516C161.676 216.93 161.583 216.453 161.395 216.086C161.098 215.508 160.587 215.219 159.86 215.219C159.215 215.219 158.747 215.465 158.454 215.957C158.161 216.449 158.014 217.043 158.014 217.738C158.014 218.406 158.161 218.963 158.454 219.408C158.747 219.854 159.212 220.076 159.848 220.076ZM159.889 214.299C160.698 214.299 161.381 214.568 161.94 215.107C162.499 215.646 162.778 216.439 162.778 217.486C162.778 218.498 162.532 219.334 162.04 219.994C161.547 220.654 160.784 220.984 159.749 220.984C158.885 220.984 158.2 220.693 157.692 220.111C157.184 219.525 156.93 218.74 156.93 217.756C156.93 216.701 157.198 215.861 157.733 215.236C158.268 214.611 158.987 214.299 159.889 214.299ZM170.583 215.523C170.583 215.281 170.501 215.064 170.337 214.873C170.176 214.678 169.954 214.58 169.669 214.58C169.223 214.58 168.837 214.844 168.508 215.371C168.184 215.895 168.022 216.416 168.022 216.936C168.022 217.318 168.106 217.611 168.274 217.814C168.442 218.014 168.653 218.113 168.907 218.113C169.434 218.113 169.844 217.807 170.137 217.193C170.434 216.576 170.583 216.02 170.583 215.523ZM169.417 221.008C167.784 221.008 166.526 220.498 165.643 219.479C164.936 218.662 164.583 217.719 164.583 216.648C164.583 215.375 165.012 214.293 165.872 213.402C166.825 212.41 168.104 211.914 169.71 211.914C171.1 211.914 172.194 212.266 172.991 212.969C173.737 213.633 174.11 214.494 174.11 215.553C174.11 216.443 173.842 217.205 173.307 217.838C172.776 218.467 172.18 218.781 171.52 218.781C171.133 218.781 170.848 218.689 170.665 218.506C170.481 218.318 170.389 218.094 170.389 217.832C170.389 217.789 170.393 217.744 170.401 217.697C170.409 217.65 170.419 217.602 170.43 217.551C170.223 218 169.962 218.318 169.645 218.506C169.329 218.689 169.003 218.781 168.667 218.781C168.186 218.781 167.796 218.607 167.495 218.26C167.198 217.912 167.049 217.465 167.049 216.918C167.049 216.141 167.303 215.455 167.811 214.861C168.323 214.268 168.872 213.971 169.458 213.971C169.856 213.971 170.184 214.086 170.442 214.316C170.704 214.547 170.842 214.824 170.858 215.148L171.151 214.164H172.012L171.233 216.73C171.174 216.93 171.131 217.09 171.104 217.211C171.077 217.332 171.063 217.439 171.063 217.533C171.063 217.709 171.116 217.838 171.221 217.92C171.331 217.998 171.454 218.037 171.59 218.037C172.036 218.037 172.434 217.805 172.786 217.34C173.141 216.875 173.319 216.268 173.319 215.518C173.319 214.611 173.003 213.9 172.37 213.385C171.737 212.865 170.885 212.605 169.815 212.605C168.331 212.605 167.196 213.039 166.411 213.906C165.739 214.645 165.403 215.572 165.403 216.689C165.403 217.666 165.723 218.486 166.364 219.15C167.114 219.936 168.182 220.328 169.569 220.328C170.217 220.328 170.821 220.227 171.38 220.023C171.938 219.816 172.45 219.539 172.915 219.191L173.301 219.719C172.95 220.031 172.424 220.324 171.725 220.598C171.026 220.871 170.256 221.008 169.417 221.008ZM178.874 220.047C179.366 220.047 179.774 219.842 180.098 219.432C180.426 219.018 180.59 218.4 180.59 217.58C180.59 217.08 180.518 216.65 180.374 216.291C180.1 215.6 179.6 215.254 178.874 215.254C178.143 215.254 177.643 215.619 177.374 216.35C177.229 216.74 177.157 217.236 177.157 217.838C177.157 218.322 177.229 218.734 177.374 219.074C177.647 219.723 178.147 220.047 178.874 220.047ZM176.143 214.51H177.169V215.342C177.38 215.057 177.61 214.836 177.86 214.68C178.215 214.445 178.633 214.328 179.114 214.328C179.825 214.328 180.428 214.602 180.924 215.148C181.421 215.691 181.669 216.469 181.669 217.48C181.669 218.848 181.311 219.824 180.596 220.41C180.143 220.781 179.616 220.967 179.014 220.967C178.542 220.967 178.145 220.863 177.825 220.656C177.637 220.539 177.428 220.338 177.198 220.053V223.258H176.143V214.51ZM182.934 212.148H183.989V220.756H182.934V212.148ZM188.067 220.076C188.766 220.076 189.245 219.812 189.503 219.285C189.764 218.754 189.895 218.164 189.895 217.516C189.895 216.93 189.801 216.453 189.614 216.086C189.317 215.508 188.805 215.219 188.079 215.219C187.434 215.219 186.965 215.465 186.672 215.957C186.38 216.449 186.233 217.043 186.233 217.738C186.233 218.406 186.38 218.963 186.672 219.408C186.965 219.854 187.43 220.076 188.067 220.076ZM188.108 214.299C188.917 214.299 189.6 214.568 190.159 215.107C190.717 215.646 190.997 216.439 190.997 217.486C190.997 218.498 190.751 219.334 190.258 219.994C189.766 220.654 189.003 220.984 187.967 220.984C187.104 220.984 186.419 220.693 185.911 220.111C185.403 219.525 185.149 218.74 185.149 217.756C185.149 216.701 185.417 215.861 185.952 215.236C186.487 214.611 187.206 214.299 188.108 214.299ZM194.471 214.369C194.964 214.369 195.393 214.49 195.76 214.732C195.96 214.869 196.163 215.068 196.37 215.33V214.539H197.342V220.246C197.342 221.043 197.225 221.672 196.991 222.133C196.553 222.984 195.727 223.41 194.512 223.41C193.837 223.41 193.268 223.258 192.807 222.953C192.346 222.652 192.089 222.18 192.034 221.535H193.106C193.157 221.816 193.258 222.033 193.411 222.186C193.649 222.42 194.024 222.537 194.536 222.537C195.344 222.537 195.874 222.252 196.124 221.682C196.272 221.346 196.34 220.746 196.329 219.883C196.118 220.203 195.864 220.441 195.567 220.598C195.27 220.754 194.878 220.832 194.389 220.832C193.71 220.832 193.114 220.592 192.602 220.111C192.094 219.627 191.84 218.828 191.84 217.715C191.84 216.664 192.096 215.844 192.608 215.254C193.124 214.664 193.745 214.369 194.471 214.369ZM196.37 217.592C196.37 216.814 196.21 216.238 195.889 215.863C195.569 215.488 195.161 215.301 194.665 215.301C193.922 215.301 193.415 215.648 193.141 216.344C192.997 216.715 192.924 217.201 192.924 217.803C192.924 218.51 193.067 219.049 193.352 219.42C193.641 219.787 194.028 219.971 194.512 219.971C195.27 219.971 195.803 219.629 196.112 218.945C196.284 218.559 196.37 218.107 196.37 217.592ZM201.151 214.369C201.643 214.369 202.073 214.49 202.44 214.732C202.639 214.869 202.842 215.068 203.049 215.33V214.539H204.022V220.246C204.022 221.043 203.905 221.672 203.671 222.133C203.233 222.984 202.407 223.41 201.192 223.41C200.516 223.41 199.948 223.258 199.487 222.953C199.026 222.652 198.768 222.18 198.714 221.535H199.786C199.837 221.816 199.938 222.033 200.09 222.186C200.329 222.42 200.704 222.537 201.215 222.537C202.024 222.537 202.553 222.252 202.803 221.682C202.952 221.346 203.02 220.746 203.008 219.883C202.797 220.203 202.544 220.441 202.247 220.598C201.95 220.754 201.557 220.832 201.069 220.832C200.389 220.832 199.794 220.592 199.282 220.111C198.774 219.627 198.52 218.828 198.52 217.715C198.52 216.664 198.776 215.844 199.288 215.254C199.803 214.664 200.424 214.369 201.151 214.369ZM203.049 217.592C203.049 216.814 202.889 216.238 202.569 215.863C202.249 215.488 201.84 215.301 201.344 215.301C200.602 215.301 200.094 215.648 199.821 216.344C199.676 216.715 199.604 217.201 199.604 217.803C199.604 218.51 199.747 219.049 200.032 219.42C200.321 219.787 200.708 219.971 201.192 219.971C201.95 219.971 202.483 219.629 202.792 218.945C202.964 218.559 203.049 218.107 203.049 217.592ZM208.229 214.34C208.674 214.34 209.106 214.445 209.524 214.656C209.942 214.863 210.26 215.133 210.479 215.465C210.69 215.781 210.831 216.15 210.901 216.572C210.964 216.861 210.995 217.322 210.995 217.955H206.395C206.415 218.592 206.565 219.104 206.846 219.49C207.128 219.873 207.563 220.064 208.153 220.064C208.704 220.064 209.143 219.883 209.471 219.52C209.659 219.309 209.792 219.064 209.87 218.787H210.907C210.88 219.018 210.788 219.275 210.631 219.561C210.479 219.842 210.307 220.072 210.116 220.252C209.796 220.564 209.399 220.775 208.926 220.885C208.672 220.947 208.385 220.979 208.065 220.979C207.284 220.979 206.622 220.695 206.079 220.129C205.536 219.559 205.264 218.762 205.264 217.738C205.264 216.73 205.538 215.912 206.085 215.283C206.631 214.654 207.346 214.34 208.229 214.34ZM209.911 217.117C209.868 216.66 209.768 216.295 209.612 216.021C209.323 215.514 208.84 215.26 208.165 215.26C207.68 215.26 207.274 215.436 206.946 215.787C206.618 216.135 206.444 216.578 206.424 217.117H209.911ZM212.964 217.691C212.964 218.363 213.106 218.926 213.391 219.379C213.676 219.832 214.133 220.059 214.762 220.059C215.251 220.059 215.651 219.85 215.964 219.432C216.28 219.01 216.438 218.406 216.438 217.621C216.438 216.828 216.276 216.242 215.952 215.863C215.628 215.48 215.227 215.289 214.751 215.289C214.219 215.289 213.788 215.492 213.456 215.898C213.128 216.305 212.964 216.902 212.964 217.691ZM214.551 214.369C215.032 214.369 215.434 214.471 215.758 214.674C215.946 214.791 216.159 214.996 216.397 215.289V212.119H217.411V220.756H216.462V219.883C216.215 220.27 215.924 220.549 215.589 220.721C215.253 220.893 214.868 220.979 214.434 220.979C213.735 220.979 213.13 220.686 212.618 220.1C212.106 219.51 211.85 218.727 211.85 217.75C211.85 216.836 212.083 216.045 212.547 215.377C213.016 214.705 213.684 214.369 214.551 214.369ZM219.227 219.479H220.452V220.756H219.227V219.479ZM224.735 214.299C225.442 214.299 226.016 214.471 226.458 214.814C226.903 215.158 227.171 215.75 227.26 216.59H226.235C226.172 216.203 226.03 215.883 225.807 215.629C225.585 215.371 225.227 215.242 224.735 215.242C224.063 215.242 223.583 215.57 223.294 216.227C223.106 216.652 223.012 217.178 223.012 217.803C223.012 218.432 223.145 218.961 223.411 219.391C223.676 219.82 224.094 220.035 224.665 220.035C225.102 220.035 225.448 219.902 225.702 219.637C225.96 219.367 226.137 219 226.235 218.535H227.26C227.143 219.367 226.85 219.977 226.381 220.363C225.913 220.746 225.313 220.938 224.583 220.938C223.762 220.938 223.108 220.639 222.62 220.041C222.131 219.439 221.887 218.689 221.887 217.791C221.887 216.689 222.155 215.832 222.69 215.219C223.225 214.605 223.907 214.299 224.735 214.299ZM230.805 220.076C231.505 220.076 231.983 219.812 232.241 219.285C232.503 218.754 232.633 218.164 232.633 217.516C232.633 216.93 232.54 216.453 232.352 216.086C232.055 215.508 231.544 215.219 230.817 215.219C230.172 215.219 229.704 215.465 229.411 215.957C229.118 216.449 228.971 217.043 228.971 217.738C228.971 218.406 229.118 218.963 229.411 219.408C229.704 219.854 230.169 220.076 230.805 220.076ZM230.846 214.299C231.655 214.299 232.339 214.568 232.897 215.107C233.456 215.646 233.735 216.439 233.735 217.486C233.735 218.498 233.489 219.334 232.997 219.994C232.505 220.654 231.741 220.984 230.706 220.984C229.842 220.984 229.157 220.693 228.649 220.111C228.141 219.525 227.887 218.74 227.887 217.756C227.887 216.701 228.155 215.861 228.69 215.236C229.225 214.611 229.944 214.299 230.846 214.299ZM234.995 214.48H236.038V215.371C236.288 215.062 236.514 214.838 236.717 214.697C237.065 214.459 237.46 214.34 237.901 214.34C238.401 214.34 238.803 214.463 239.108 214.709C239.28 214.85 239.436 215.057 239.577 215.33C239.811 214.994 240.087 214.746 240.403 214.586C240.719 214.422 241.075 214.34 241.469 214.34C242.313 214.34 242.887 214.645 243.192 215.254C243.356 215.582 243.438 216.023 243.438 216.578V220.756H242.342V216.396C242.342 215.979 242.237 215.691 242.026 215.535C241.819 215.379 241.565 215.301 241.264 215.301C240.85 215.301 240.493 215.439 240.192 215.717C239.895 215.994 239.747 216.457 239.747 217.105V220.756H238.674V216.66C238.674 216.234 238.624 215.924 238.522 215.729C238.362 215.436 238.063 215.289 237.626 215.289C237.227 215.289 236.864 215.443 236.536 215.752C236.212 216.061 236.049 216.619 236.049 217.428V220.756H234.995V214.48Z" fill="#32323A"/>
<path d="M101.917 193.079V195.979H104.473C104.981 195.979 105.361 195.921 105.615 195.804C106.065 195.599 106.289 195.193 106.289 194.588C106.289 193.934 106.072 193.494 105.637 193.27C105.393 193.143 105.027 193.079 104.539 193.079H101.917ZM105.007 191.204C105.764 191.219 106.345 191.312 106.751 191.482C107.161 191.653 107.507 191.905 107.791 192.237C108.025 192.51 108.211 192.813 108.347 193.145C108.484 193.477 108.552 193.855 108.552 194.28C108.552 194.793 108.423 195.298 108.164 195.796C107.905 196.29 107.478 196.639 106.882 196.844C107.38 197.044 107.732 197.33 107.937 197.701C108.147 198.067 108.252 198.628 108.252 199.385V200.11C108.252 200.604 108.272 200.938 108.311 201.114C108.369 201.392 108.506 201.597 108.721 201.729V202H106.238C106.17 201.761 106.121 201.568 106.091 201.421C106.033 201.119 106.001 200.809 105.996 200.491L105.982 199.488C105.972 198.799 105.845 198.34 105.601 198.111C105.361 197.881 104.91 197.767 104.246 197.767H101.917V202H99.712V191.204H105.007ZM110.171 199.151C110.171 198.501 110.332 197.945 110.654 197.481C110.977 197.017 111.504 196.558 112.236 196.104L112.464 195.965C112.151 195.613 111.909 195.254 111.738 194.888C111.568 194.522 111.482 194.141 111.482 193.746C111.482 192.959 111.746 192.347 112.273 191.907C112.8 191.463 113.484 191.241 114.324 191.241C115.09 191.241 115.723 191.468 116.221 191.922C116.724 192.371 116.975 192.947 116.975 193.65C116.975 194.285 116.824 194.8 116.521 195.196C116.223 195.591 115.784 195.958 115.203 196.294L116.734 198.184C116.909 197.93 117.044 197.654 117.136 197.356C117.234 197.059 117.285 196.744 117.29 196.412H119.143C119.114 197.066 118.958 197.728 118.674 198.396C118.518 198.772 118.264 199.188 117.913 199.642L119.876 202H117.341L116.594 201.084C116.233 201.421 115.896 201.67 115.584 201.832C115.027 202.12 114.385 202.264 113.657 202.264C112.564 202.264 111.709 201.941 111.094 201.297C110.479 200.652 110.171 199.937 110.171 199.151ZM113.401 193.672C113.401 193.868 113.469 194.073 113.606 194.288C113.694 194.429 113.884 194.681 114.177 195.042C114.47 194.837 114.68 194.664 114.807 194.522C115.051 194.258 115.173 193.973 115.173 193.665C115.173 193.44 115.1 193.24 114.954 193.064C114.807 192.889 114.585 192.801 114.287 192.801C114.102 192.801 113.928 192.852 113.767 192.955C113.523 193.106 113.401 193.345 113.401 193.672ZM112.251 199.085C112.251 199.441 112.395 199.769 112.683 200.066C112.976 200.364 113.35 200.513 113.804 200.513C114.146 200.513 114.468 200.435 114.771 200.279C115.078 200.118 115.327 199.939 115.518 199.744L113.54 197.298C113.018 197.645 112.671 197.95 112.5 198.213C112.334 198.477 112.251 198.768 112.251 199.085ZM128.496 191.204H131.741V202H129.639V194.698C129.639 194.488 129.641 194.195 129.646 193.819C129.651 193.438 129.653 193.145 129.653 192.94L127.61 202H125.42L123.391 192.94C123.391 193.145 123.394 193.438 123.399 193.819C123.403 194.195 123.406 194.488 123.406 194.698V202H121.304V191.204H124.585L126.548 199.693L128.496 191.204ZM142.786 200.389C143.679 200.389 144.387 200.059 144.91 199.4C145.437 198.741 145.701 197.803 145.701 196.587C145.701 195.376 145.437 194.441 144.91 193.782C144.387 193.118 143.679 192.786 142.786 192.786C141.892 192.786 141.179 193.116 140.647 193.775C140.115 194.434 139.849 195.372 139.849 196.587C139.849 197.803 140.115 198.741 140.647 199.4C141.179 200.059 141.892 200.389 142.786 200.389ZM147.957 196.587C147.957 198.526 147.412 200.01 146.323 201.041C145.508 201.88 144.329 202.3 142.786 202.3C141.243 202.3 140.064 201.88 139.248 201.041C138.154 200.01 137.608 198.526 137.608 196.587C137.608 194.61 138.154 193.125 139.248 192.134C140.064 191.294 141.243 190.875 142.786 190.875C144.329 190.875 145.508 191.294 146.323 192.134C147.412 193.125 147.957 194.61 147.957 196.587ZM151.597 194.017V198.829C151.597 199.283 151.651 199.625 151.758 199.854C151.948 200.259 152.322 200.462 152.879 200.462C153.591 200.462 154.08 200.174 154.343 199.598C154.48 199.285 154.548 198.873 154.548 198.36V194.017H156.665V202H154.636V200.872C154.617 200.896 154.568 200.97 154.49 201.092C154.412 201.214 154.319 201.321 154.212 201.414C153.884 201.707 153.567 201.907 153.259 202.015C152.957 202.122 152.6 202.176 152.19 202.176C151.008 202.176 150.213 201.751 149.802 200.901C149.573 200.433 149.458 199.742 149.458 198.829V194.017H151.597ZM157.866 195.577V194.09H158.98V191.863H161.045V194.09H162.341V195.577H161.045V199.795C161.045 200.123 161.087 200.328 161.17 200.411C161.253 200.489 161.506 200.528 161.931 200.528C161.995 200.528 162.061 200.528 162.129 200.528C162.202 200.523 162.273 200.518 162.341 200.513V202.073L161.353 202.11C160.366 202.144 159.693 201.973 159.331 201.597C159.097 201.358 158.98 200.989 158.98 200.491V195.577H157.866ZM168.018 193.826C168.057 193.826 168.089 193.829 168.113 193.833C168.142 193.833 168.203 193.836 168.296 193.841V195.979C168.164 195.965 168.047 195.955 167.944 195.95C167.842 195.945 167.759 195.943 167.695 195.943C166.856 195.943 166.292 196.216 166.004 196.763C165.842 197.071 165.762 197.544 165.762 198.184V202H163.66V194.017H165.652V195.408C165.974 194.876 166.255 194.512 166.494 194.317C166.885 193.99 167.393 193.826 168.018 193.826ZM172.676 195.525C172.193 195.525 171.817 195.677 171.548 195.979C171.284 196.282 171.118 196.692 171.05 197.21H174.295C174.26 196.658 174.092 196.241 173.789 195.958C173.491 195.669 173.12 195.525 172.676 195.525ZM172.676 193.804C173.34 193.804 173.938 193.929 174.47 194.178C175.003 194.427 175.442 194.82 175.789 195.357C176.101 195.831 176.304 196.38 176.397 197.005C176.45 197.371 176.472 197.898 176.463 198.587H170.999C171.028 199.388 171.279 199.949 171.753 200.271C172.041 200.472 172.388 200.572 172.793 200.572C173.223 200.572 173.572 200.45 173.84 200.206C173.987 200.074 174.116 199.891 174.229 199.656H176.36C176.306 200.13 176.06 200.611 175.62 201.099C174.937 201.875 173.98 202.264 172.749 202.264C171.734 202.264 170.838 201.937 170.061 201.282C169.285 200.628 168.897 199.563 168.897 198.089C168.897 196.707 169.246 195.647 169.944 194.91C170.647 194.173 171.558 193.804 172.676 193.804ZM182.278 198.118C182.146 198.201 182.012 198.27 181.875 198.323C181.743 198.372 181.56 198.418 181.326 198.462L180.857 198.55C180.418 198.628 180.103 198.724 179.912 198.836C179.59 199.026 179.429 199.322 179.429 199.722C179.429 200.079 179.526 200.337 179.722 200.499C179.922 200.655 180.164 200.733 180.447 200.733C180.896 200.733 181.309 200.601 181.685 200.337C182.066 200.074 182.263 199.593 182.278 198.895V198.118ZM181.011 197.144C181.397 197.095 181.672 197.034 181.839 196.961C182.136 196.834 182.285 196.636 182.285 196.368C182.285 196.041 182.171 195.816 181.941 195.694C181.716 195.567 181.384 195.503 180.945 195.503C180.452 195.503 180.103 195.625 179.898 195.87C179.751 196.05 179.653 196.294 179.605 196.602H177.59C177.634 195.904 177.83 195.33 178.176 194.881C178.728 194.178 179.675 193.826 181.018 193.826C181.892 193.826 182.669 194 183.347 194.346C184.026 194.693 184.365 195.347 184.365 196.309V199.971C184.365 200.225 184.37 200.533 184.38 200.894C184.395 201.167 184.436 201.353 184.505 201.451C184.573 201.548 184.675 201.629 184.812 201.692V202H182.542C182.478 201.839 182.434 201.688 182.41 201.546C182.385 201.404 182.366 201.243 182.351 201.062C182.063 201.375 181.731 201.641 181.355 201.861C180.906 202.12 180.398 202.249 179.832 202.249C179.109 202.249 178.511 202.044 178.037 201.634C177.568 201.219 177.334 200.633 177.334 199.876C177.334 198.895 177.713 198.184 178.469 197.745C178.884 197.505 179.495 197.334 180.3 197.232L181.011 197.144ZM190.994 196.88C190.955 196.583 190.855 196.314 190.693 196.075C190.459 195.752 190.095 195.591 189.602 195.591C188.899 195.591 188.418 195.94 188.159 196.639C188.023 197.01 187.954 197.503 187.954 198.118C187.954 198.704 188.023 199.175 188.159 199.532C188.408 200.196 188.877 200.528 189.566 200.528C190.054 200.528 190.401 200.396 190.606 200.132C190.811 199.869 190.935 199.527 190.979 199.107H193.11C193.062 199.742 192.832 200.342 192.422 200.909C191.768 201.822 190.798 202.278 189.514 202.278C188.23 202.278 187.285 201.897 186.68 201.136C186.074 200.374 185.772 199.385 185.772 198.169C185.772 196.797 186.106 195.73 186.775 194.969C187.444 194.207 188.367 193.826 189.544 193.826C190.545 193.826 191.362 194.051 191.997 194.5C192.637 194.949 193.015 195.743 193.132 196.88H190.994ZM198.977 193.812C199.47 193.812 199.917 193.897 200.318 194.068C200.723 194.239 201.055 194.5 201.314 194.852C201.533 195.149 201.668 195.457 201.716 195.774C201.765 196.087 201.79 196.6 201.79 197.312V202H199.658V197.144C199.658 196.714 199.585 196.368 199.439 196.104C199.248 195.733 198.887 195.547 198.355 195.547C197.803 195.547 197.383 195.733 197.095 196.104C196.812 196.47 196.67 196.995 196.67 197.679V202H194.59V191.241H196.67V195.057C196.973 194.593 197.322 194.271 197.717 194.09C198.118 193.904 198.538 193.812 198.977 193.812Z" fill="#32323A"/>
<path d="M42.853 282.241L44.8818 290.993L47.3135 282.241H48.8955L51.3271 290.993L53.356 282.241H54.9526L52.1255 293H50.5947L48.1118 284.079L45.6143 293H44.0835L41.271 282.241H42.853ZM59.1348 284.98C59.6914 284.98 60.231 285.112 60.7534 285.375C61.2759 285.634 61.6738 285.971 61.9473 286.386C62.2109 286.782 62.3867 287.243 62.4746 287.771C62.5527 288.132 62.5918 288.708 62.5918 289.499H56.8423C56.8667 290.295 57.0547 290.935 57.4062 291.418C57.7578 291.896 58.3022 292.136 59.0396 292.136C59.728 292.136 60.2773 291.909 60.6875 291.455C60.9219 291.191 61.0879 290.886 61.1855 290.539H62.4819C62.4478 290.827 62.333 291.149 62.1377 291.506C61.9473 291.857 61.7324 292.146 61.4932 292.37C61.0928 292.761 60.5972 293.024 60.0063 293.161C59.689 293.239 59.3301 293.278 58.9297 293.278C57.9531 293.278 57.1255 292.924 56.4468 292.216C55.7681 291.503 55.4287 290.507 55.4287 289.228C55.4287 287.968 55.7705 286.945 56.4541 286.159C57.1377 285.373 58.0312 284.98 59.1348 284.98ZM61.2368 288.452C61.1831 287.88 61.0586 287.424 60.8633 287.082C60.502 286.447 59.8989 286.13 59.0542 286.13C58.4487 286.13 57.9409 286.35 57.5308 286.789C57.1206 287.224 56.9033 287.778 56.8789 288.452H61.2368ZM69.4033 290.913C69.4033 291.293 69.5425 291.594 69.8208 291.813C70.0991 292.033 70.4287 292.143 70.8096 292.143C71.2734 292.143 71.7227 292.036 72.1572 291.821C72.8896 291.464 73.2559 290.881 73.2559 290.07V289.008C73.0947 289.111 72.8872 289.196 72.6333 289.265C72.3794 289.333 72.1304 289.382 71.8862 289.411L71.0879 289.514C70.6094 289.577 70.2505 289.677 70.0112 289.814C69.606 290.043 69.4033 290.41 69.4033 290.913ZM72.5967 288.247C72.8994 288.208 73.1021 288.081 73.2046 287.866C73.2632 287.749 73.2925 287.58 73.2925 287.36C73.2925 286.911 73.1313 286.586 72.8091 286.386C72.4917 286.181 72.0352 286.079 71.4395 286.079C70.751 286.079 70.2627 286.264 69.9746 286.635C69.8135 286.84 69.7085 287.146 69.6597 287.551H68.4292C68.4536 286.584 68.7661 285.913 69.3667 285.537C69.9722 285.156 70.6729 284.965 71.4688 284.965C72.3916 284.965 73.1411 285.141 73.7173 285.493C74.2886 285.844 74.5742 286.391 74.5742 287.133V291.652C74.5742 291.789 74.6011 291.899 74.6548 291.982C74.7134 292.065 74.833 292.106 75.0137 292.106C75.0723 292.106 75.1382 292.104 75.2114 292.099C75.2847 292.089 75.3628 292.077 75.4458 292.062V293.037C75.2407 293.095 75.0845 293.132 74.9771 293.146C74.8696 293.161 74.7231 293.168 74.5376 293.168C74.0835 293.168 73.7539 293.007 73.5488 292.685C73.4414 292.514 73.3657 292.272 73.3218 291.96C73.0532 292.312 72.6675 292.617 72.1646 292.875C71.6616 293.134 71.1074 293.264 70.502 293.264C69.7744 293.264 69.1787 293.044 68.7148 292.604C68.2559 292.16 68.0264 291.606 68.0264 290.942C68.0264 290.214 68.2534 289.65 68.7075 289.25C69.1616 288.85 69.7573 288.603 70.4946 288.51L72.5967 288.247ZM76.7788 285.156H78.0312V286.511C78.1338 286.247 78.3853 285.927 78.7856 285.551C79.186 285.17 79.6475 284.98 80.1699 284.98C80.1943 284.98 80.2358 284.982 80.2944 284.987C80.353 284.992 80.4531 285.002 80.5947 285.017V286.408C80.5166 286.394 80.4434 286.384 80.375 286.379C80.3115 286.374 80.2407 286.372 80.1626 286.372C79.4985 286.372 78.9883 286.586 78.6318 287.016C78.2754 287.441 78.0972 287.932 78.0972 288.488V293H76.7788V285.156ZM85.0039 284.98C85.5605 284.98 86.1001 285.112 86.6226 285.375C87.145 285.634 87.543 285.971 87.8164 286.386C88.0801 286.782 88.2559 287.243 88.3438 287.771C88.4219 288.132 88.4609 288.708 88.4609 289.499H82.7114C82.7358 290.295 82.9238 290.935 83.2754 291.418C83.627 291.896 84.1714 292.136 84.9087 292.136C85.5972 292.136 86.1465 291.909 86.5566 291.455C86.791 291.191 86.957 290.886 87.0547 290.539H88.3511C88.3169 290.827 88.2021 291.149 88.0068 291.506C87.8164 291.857 87.6016 292.146 87.3623 292.37C86.9619 292.761 86.4663 293.024 85.8755 293.161C85.5581 293.239 85.1992 293.278 84.7988 293.278C83.8223 293.278 82.9946 292.924 82.3159 292.216C81.6372 291.503 81.2979 290.507 81.2979 289.228C81.2979 287.968 81.6396 286.945 82.3232 286.159C83.0068 285.373 83.9004 284.98 85.0039 284.98ZM87.106 288.452C87.0522 287.88 86.9277 287.424 86.7324 287.082C86.3711 286.447 85.7681 286.13 84.9233 286.13C84.3179 286.13 83.8101 286.35 83.3999 286.789C82.9897 287.224 82.7725 287.778 82.748 288.452H87.106ZM94.2617 282.204H95.5801V286.218C95.8926 285.822 96.1733 285.544 96.4224 285.383C96.8472 285.104 97.377 284.965 98.0117 284.965C99.1494 284.965 99.9209 285.363 100.326 286.159C100.546 286.594 100.656 287.197 100.656 287.968V293H99.3008V288.056C99.3008 287.48 99.2275 287.058 99.0811 286.789C98.8418 286.359 98.3926 286.145 97.7334 286.145C97.1865 286.145 96.6909 286.333 96.2466 286.708C95.8022 287.084 95.5801 287.795 95.5801 288.84V293H94.2617V282.204ZM105.724 292.15C106.598 292.15 107.196 291.821 107.519 291.162C107.846 290.498 108.009 289.76 108.009 288.95C108.009 288.217 107.892 287.622 107.658 287.163C107.287 286.44 106.647 286.079 105.739 286.079C104.933 286.079 104.347 286.386 103.981 287.001C103.615 287.617 103.432 288.359 103.432 289.228C103.432 290.063 103.615 290.759 103.981 291.315C104.347 291.872 104.928 292.15 105.724 292.15ZM105.775 284.929C106.786 284.929 107.641 285.266 108.339 285.939C109.037 286.613 109.386 287.604 109.386 288.913C109.386 290.178 109.079 291.223 108.463 292.048C107.848 292.873 106.894 293.286 105.6 293.286C104.521 293.286 103.664 292.922 103.029 292.194C102.394 291.462 102.077 290.48 102.077 289.25C102.077 287.932 102.411 286.882 103.08 286.101C103.749 285.319 104.647 284.929 105.775 284.929ZM111.745 290.539C111.784 290.979 111.894 291.315 112.074 291.55C112.406 291.975 112.982 292.187 113.803 292.187C114.291 292.187 114.721 292.082 115.092 291.872C115.463 291.657 115.648 291.328 115.648 290.883C115.648 290.546 115.5 290.29 115.202 290.114C115.011 290.007 114.635 289.882 114.074 289.741L113.026 289.477C112.357 289.311 111.864 289.125 111.547 288.92C110.98 288.564 110.697 288.071 110.697 287.441C110.697 286.699 110.963 286.098 111.496 285.639C112.033 285.18 112.753 284.951 113.656 284.951C114.838 284.951 115.69 285.297 116.212 285.991C116.54 286.43 116.698 286.904 116.688 287.412H115.443C115.419 287.114 115.314 286.843 115.128 286.599C114.826 286.252 114.301 286.079 113.554 286.079C113.056 286.079 112.677 286.174 112.418 286.364C112.165 286.555 112.038 286.806 112.038 287.119C112.038 287.46 112.206 287.734 112.543 287.939C112.738 288.061 113.026 288.168 113.407 288.261L114.279 288.474C115.226 288.703 115.861 288.925 116.183 289.14C116.696 289.477 116.952 290.007 116.952 290.729C116.952 291.428 116.686 292.031 116.154 292.539C115.626 293.046 114.821 293.3 113.737 293.3C112.57 293.3 111.742 293.037 111.254 292.509C110.771 291.977 110.512 291.32 110.478 290.539H111.745ZM118.725 282.966H120.058V285.156H121.31V286.232H120.058V291.352C120.058 291.625 120.15 291.809 120.336 291.901C120.438 291.955 120.609 291.982 120.849 291.982C120.912 291.982 120.98 291.982 121.054 291.982C121.127 291.977 121.212 291.97 121.31 291.96V293C121.159 293.044 121 293.076 120.834 293.095C120.673 293.115 120.497 293.125 120.307 293.125C119.691 293.125 119.274 292.968 119.054 292.656C118.834 292.338 118.725 291.928 118.725 291.425V286.232H117.663V285.156H118.725V282.966ZM122.636 285.192H123.976V293H122.636V285.192ZM122.636 282.241H123.976V283.735H122.636V282.241ZM125.976 285.156H127.228V286.269C127.599 285.81 127.992 285.48 128.407 285.28C128.822 285.08 129.284 284.98 129.792 284.98C130.905 284.98 131.657 285.368 132.047 286.145C132.262 286.569 132.37 287.177 132.37 287.968V293H131.029V288.056C131.029 287.578 130.958 287.192 130.817 286.899C130.583 286.411 130.158 286.167 129.542 286.167C129.23 286.167 128.974 286.198 128.773 286.262C128.412 286.369 128.095 286.584 127.821 286.906C127.602 287.165 127.458 287.434 127.389 287.712C127.326 287.985 127.294 288.378 127.294 288.891V293H125.976V285.156ZM137.094 285.017C137.709 285.017 138.246 285.168 138.705 285.471C138.954 285.642 139.208 285.891 139.467 286.218V285.229H140.683V292.363C140.683 293.359 140.536 294.145 140.243 294.721C139.696 295.786 138.664 296.318 137.145 296.318C136.3 296.318 135.59 296.127 135.014 295.747C134.438 295.371 134.115 294.78 134.047 293.974H135.387C135.451 294.326 135.578 294.597 135.768 294.787C136.066 295.08 136.535 295.227 137.174 295.227C138.185 295.227 138.847 294.87 139.159 294.157C139.345 293.737 139.43 292.988 139.416 291.909C139.152 292.309 138.834 292.607 138.463 292.802C138.092 292.998 137.602 293.095 136.991 293.095C136.142 293.095 135.397 292.795 134.757 292.194C134.123 291.589 133.805 290.59 133.805 289.199C133.805 287.885 134.125 286.86 134.765 286.123C135.409 285.385 136.186 285.017 137.094 285.017ZM139.467 289.045C139.467 288.073 139.267 287.353 138.866 286.884C138.466 286.416 137.956 286.181 137.335 286.181C136.408 286.181 135.773 286.616 135.431 287.485C135.25 287.949 135.16 288.557 135.16 289.309C135.16 290.192 135.338 290.866 135.695 291.33C136.056 291.789 136.54 292.019 137.145 292.019C138.092 292.019 138.759 291.591 139.145 290.737C139.359 290.253 139.467 289.689 139.467 289.045ZM147.86 290.913C147.86 291.293 148 291.594 148.278 291.813C148.556 292.033 148.886 292.143 149.267 292.143C149.73 292.143 150.18 292.036 150.614 291.821C151.347 291.464 151.713 290.881 151.713 290.07V289.008C151.552 289.111 151.344 289.196 151.09 289.265C150.836 289.333 150.587 289.382 150.343 289.411L149.545 289.514C149.066 289.577 148.708 289.677 148.468 289.814C148.063 290.043 147.86 290.41 147.86 290.913ZM151.054 288.247C151.356 288.208 151.559 288.081 151.662 287.866C151.72 287.749 151.75 287.58 151.75 287.36C151.75 286.911 151.588 286.586 151.266 286.386C150.949 286.181 150.492 286.079 149.896 286.079C149.208 286.079 148.72 286.264 148.432 286.635C148.271 286.84 148.166 287.146 148.117 287.551H146.886C146.911 286.584 147.223 285.913 147.824 285.537C148.429 285.156 149.13 284.965 149.926 284.965C150.849 284.965 151.598 285.141 152.174 285.493C152.746 285.844 153.031 286.391 153.031 287.133V291.652C153.031 291.789 153.058 291.899 153.112 291.982C153.17 292.065 153.29 292.106 153.471 292.106C153.529 292.106 153.595 292.104 153.668 292.099C153.742 292.089 153.82 292.077 153.903 292.062V293.037C153.698 293.095 153.542 293.132 153.434 293.146C153.327 293.161 153.18 293.168 152.995 293.168C152.541 293.168 152.211 293.007 152.006 292.685C151.898 292.514 151.823 292.272 151.779 291.96C151.51 292.312 151.125 292.617 150.622 292.875C150.119 293.134 149.564 293.264 148.959 293.264C148.231 293.264 147.636 293.044 147.172 292.604C146.713 292.16 146.483 291.606 146.483 290.942C146.483 290.214 146.71 289.65 147.165 289.25C147.619 288.85 148.214 288.603 148.952 288.51L151.054 288.247ZM155.199 285.156H156.452V286.269C156.823 285.81 157.216 285.48 157.631 285.28C158.046 285.08 158.507 284.98 159.015 284.98C160.128 284.98 160.88 285.368 161.271 286.145C161.486 286.569 161.593 287.177 161.593 287.968V293H160.253V288.056C160.253 287.578 160.182 287.192 160.041 286.899C159.806 286.411 159.381 286.167 158.766 286.167C158.454 286.167 158.197 286.198 157.997 286.262C157.636 286.369 157.318 286.584 157.045 286.906C156.825 287.165 156.681 287.434 156.613 287.712C156.549 287.985 156.518 288.378 156.518 288.891V293H155.199V285.156ZM169.533 289.667C169.601 290.161 169.735 290.529 169.936 290.773C170.302 291.218 170.929 291.44 171.818 291.44C172.35 291.44 172.782 291.381 173.114 291.264C173.744 291.04 174.059 290.622 174.059 290.012C174.059 289.655 173.903 289.379 173.59 289.184C173.278 288.994 172.787 288.825 172.118 288.679L170.976 288.422C169.853 288.168 169.076 287.893 168.646 287.595C167.919 287.097 167.555 286.318 167.555 285.258C167.555 284.292 167.907 283.488 168.61 282.849C169.313 282.209 170.346 281.889 171.708 281.889C172.846 281.889 173.815 282.192 174.616 282.797C175.421 283.398 175.844 284.272 175.883 285.419H173.715C173.676 284.77 173.393 284.309 172.865 284.035C172.514 283.854 172.077 283.764 171.554 283.764C170.973 283.764 170.509 283.881 170.163 284.116C169.816 284.35 169.643 284.677 169.643 285.097C169.643 285.483 169.813 285.771 170.155 285.961C170.375 286.088 170.844 286.237 171.562 286.408L173.422 286.855C174.237 287.05 174.853 287.312 175.268 287.639C175.912 288.146 176.234 288.881 176.234 289.843C176.234 290.83 175.856 291.65 175.099 292.304C174.347 292.954 173.283 293.278 171.906 293.278C170.5 293.278 169.394 292.958 168.588 292.319C167.782 291.674 167.379 290.791 167.379 289.667H169.533ZM182.138 284.812C182.631 284.812 183.078 284.897 183.478 285.068C183.883 285.239 184.215 285.5 184.474 285.852C184.694 286.149 184.828 286.457 184.877 286.774C184.926 287.087 184.95 287.6 184.95 288.312V293H182.819V288.144C182.819 287.714 182.746 287.368 182.599 287.104C182.409 286.733 182.047 286.547 181.515 286.547C180.963 286.547 180.543 286.733 180.255 287.104C179.972 287.47 179.831 287.995 179.831 288.679V293H177.75V282.241H179.831V286.057C180.133 285.593 180.482 285.271 180.878 285.09C181.278 284.904 181.698 284.812 182.138 284.812ZM190.487 291.528C191.098 291.528 191.566 291.311 191.894 290.876C192.221 290.441 192.384 289.824 192.384 289.023C192.384 288.222 192.221 287.607 191.894 287.177C191.566 286.743 191.098 286.525 190.487 286.525C189.877 286.525 189.406 286.743 189.074 287.177C188.747 287.607 188.583 288.222 188.583 289.023C188.583 289.824 188.747 290.441 189.074 290.876C189.406 291.311 189.877 291.528 190.487 291.528ZM194.574 289.023C194.574 290.195 194.237 291.198 193.563 292.033C192.89 292.863 191.867 293.278 190.495 293.278C189.123 293.278 188.1 292.863 187.426 292.033C186.752 291.198 186.415 290.195 186.415 289.023C186.415 287.871 186.752 286.872 187.426 286.027C188.1 285.183 189.123 284.76 190.495 284.76C191.867 284.76 192.89 285.183 193.563 286.027C194.237 286.872 194.574 287.871 194.574 289.023ZM201.576 289.008C201.576 288.393 201.435 287.849 201.151 287.375C200.873 286.901 200.419 286.665 199.789 286.665C199.032 286.665 198.512 287.023 198.229 287.741C198.083 288.122 198.009 288.605 198.009 289.191C198.009 290.119 198.256 290.771 198.749 291.147C199.042 291.367 199.389 291.477 199.789 291.477C200.37 291.477 200.812 291.252 201.115 290.803C201.422 290.354 201.576 289.755 201.576 289.008ZM200.39 284.841C201.322 284.841 202.111 285.185 202.755 285.874C203.405 286.562 203.729 287.573 203.729 288.906C203.729 290.312 203.412 291.384 202.777 292.121C202.147 292.858 201.334 293.227 200.338 293.227C199.704 293.227 199.176 293.068 198.756 292.751C198.527 292.575 198.302 292.319 198.083 291.982V296.142H196.017V285.017H198.017V286.196C198.241 285.849 198.48 285.576 198.734 285.375C199.198 285.019 199.75 284.841 200.39 284.841ZM204.616 287.829H208.82V289.807H204.616V287.829ZM213.185 282.094C213.317 282.094 213.437 282.099 213.544 282.109C213.651 282.114 213.798 282.124 213.983 282.138V283.837C213.866 283.823 213.668 283.813 213.39 283.808C213.117 283.798 212.926 283.859 212.819 283.991C212.716 284.118 212.665 284.26 212.665 284.416C212.665 284.572 212.665 284.797 212.665 285.09H214.035V286.562H212.665V293H210.585V286.562H209.42V285.09H210.563V284.577C210.563 283.723 210.707 283.134 210.995 282.812C211.298 282.333 212.028 282.094 213.185 282.094ZM218.817 291.528C219.428 291.528 219.896 291.311 220.224 290.876C220.551 290.441 220.714 289.824 220.714 289.023C220.714 288.222 220.551 287.607 220.224 287.177C219.896 286.743 219.428 286.525 218.817 286.525C218.207 286.525 217.736 286.743 217.404 287.177C217.077 287.607 216.913 288.222 216.913 289.023C216.913 289.824 217.077 290.441 217.404 290.876C217.736 291.311 218.207 291.528 218.817 291.528ZM222.904 289.023C222.904 290.195 222.567 291.198 221.894 292.033C221.22 292.863 220.197 293.278 218.825 293.278C217.453 293.278 216.43 292.863 215.756 292.033C215.082 291.198 214.745 290.195 214.745 289.023C214.745 287.871 215.082 286.872 215.756 286.027C216.43 285.183 217.453 284.76 218.825 284.76C220.197 284.76 221.22 285.183 221.894 286.027C222.567 286.872 222.904 287.871 222.904 289.023ZM228.742 284.826C228.781 284.826 228.812 284.829 228.837 284.833C228.866 284.833 228.927 284.836 229.02 284.841V286.979C228.888 286.965 228.771 286.955 228.668 286.95C228.566 286.945 228.483 286.943 228.419 286.943C227.58 286.943 227.016 287.216 226.728 287.763C226.566 288.071 226.486 288.544 226.486 289.184V293H224.384V285.017H226.376V286.408C226.698 285.876 226.979 285.512 227.218 285.317C227.609 284.99 228.117 284.826 228.742 284.826ZM229.621 287.829H233.825V289.807H229.621V287.829ZM235.414 282.219H243.068V284.116H237.655V286.599H242.394V288.474H237.655V293H235.414V282.219ZM248.751 284.826C248.791 284.826 248.822 284.829 248.847 284.833C248.876 284.833 248.937 284.836 249.03 284.841V286.979C248.898 286.965 248.781 286.955 248.678 286.95C248.576 286.945 248.493 286.943 248.429 286.943C247.589 286.943 247.025 287.216 246.737 287.763C246.576 288.071 246.496 288.544 246.496 289.184V293H244.394V285.017H246.386V286.408C246.708 285.876 246.989 285.512 247.228 285.317C247.619 284.99 248.126 284.826 248.751 284.826ZM253.41 286.525C252.926 286.525 252.55 286.677 252.282 286.979C252.018 287.282 251.852 287.692 251.784 288.21H255.028C254.994 287.658 254.826 287.241 254.523 286.958C254.225 286.669 253.854 286.525 253.41 286.525ZM253.41 284.804C254.074 284.804 254.672 284.929 255.204 285.178C255.736 285.427 256.176 285.82 256.522 286.357C256.835 286.831 257.038 287.38 257.13 288.005C257.184 288.371 257.206 288.898 257.196 289.587H251.732C251.762 290.388 252.013 290.949 252.487 291.271C252.775 291.472 253.122 291.572 253.527 291.572C253.957 291.572 254.306 291.45 254.574 291.206C254.721 291.074 254.85 290.891 254.962 290.656H257.094C257.04 291.13 256.793 291.611 256.354 292.099C255.67 292.875 254.713 293.264 253.483 293.264C252.467 293.264 251.571 292.937 250.795 292.282C250.019 291.628 249.63 290.563 249.63 289.089C249.63 287.707 249.979 286.647 250.678 285.91C251.381 285.173 252.292 284.804 253.41 284.804ZM261.759 286.525C261.276 286.525 260.9 286.677 260.631 286.979C260.368 287.282 260.202 287.692 260.133 288.21H263.378C263.344 287.658 263.175 287.241 262.873 286.958C262.575 286.669 262.204 286.525 261.759 286.525ZM261.759 284.804C262.423 284.804 263.021 284.929 263.554 285.178C264.086 285.427 264.525 285.82 264.872 286.357C265.185 286.831 265.387 287.38 265.48 288.005C265.534 288.371 265.556 288.898 265.546 289.587H260.082C260.111 290.388 260.363 290.949 260.836 291.271C261.125 291.472 261.471 291.572 261.876 291.572C262.306 291.572 262.655 291.45 262.924 291.206C263.07 291.074 263.2 290.891 263.312 290.656H265.443C265.39 291.13 265.143 291.611 264.704 292.099C264.02 292.875 263.063 293.264 261.833 293.264C260.817 293.264 259.921 292.937 259.145 292.282C258.368 291.628 257.98 290.563 257.98 289.089C257.98 287.707 258.329 286.647 259.027 285.91C259.73 285.173 260.641 284.804 261.759 284.804ZM274.394 284.98C274.95 284.98 275.49 285.112 276.012 285.375C276.535 285.634 276.933 285.971 277.206 286.386C277.47 286.782 277.646 287.243 277.733 287.771C277.812 288.132 277.851 288.708 277.851 289.499H272.101C272.125 290.295 272.313 290.935 272.665 291.418C273.017 291.896 273.561 292.136 274.298 292.136C274.987 292.136 275.536 291.909 275.946 291.455C276.181 291.191 276.347 290.886 276.444 290.539H277.741C277.707 290.827 277.592 291.149 277.396 291.506C277.206 291.857 276.991 292.146 276.752 292.37C276.352 292.761 275.856 293.024 275.265 293.161C274.948 293.239 274.589 293.278 274.188 293.278C273.212 293.278 272.384 292.924 271.706 292.216C271.027 291.503 270.688 290.507 270.688 289.228C270.688 287.968 271.029 286.945 271.713 286.159C272.396 285.373 273.29 284.98 274.394 284.98ZM276.496 288.452C276.442 287.88 276.317 287.424 276.122 287.082C275.761 286.447 275.158 286.13 274.313 286.13C273.708 286.13 273.2 286.35 272.79 286.789C272.379 287.224 272.162 287.778 272.138 288.452H276.496ZM280.121 285.156L282.216 291.542L284.406 285.156H285.849L282.89 293H281.483L278.59 285.156H280.121ZM290.243 284.98C290.8 284.98 291.339 285.112 291.862 285.375C292.384 285.634 292.782 285.971 293.056 286.386C293.319 286.782 293.495 287.243 293.583 287.771C293.661 288.132 293.7 288.708 293.7 289.499H287.951C287.975 290.295 288.163 290.935 288.515 291.418C288.866 291.896 289.411 292.136 290.148 292.136C290.836 292.136 291.386 291.909 291.796 291.455C292.03 291.191 292.196 290.886 292.294 290.539H293.59C293.556 290.827 293.441 291.149 293.246 291.506C293.056 291.857 292.841 292.146 292.602 292.37C292.201 292.761 291.706 293.024 291.115 293.161C290.797 293.239 290.438 293.278 290.038 293.278C289.062 293.278 288.234 292.924 287.555 292.216C286.876 291.503 286.537 290.507 286.537 289.228C286.537 287.968 286.879 286.945 287.562 286.159C288.246 285.373 289.14 284.98 290.243 284.98ZM292.345 288.452C292.292 287.88 292.167 287.424 291.972 287.082C291.61 286.447 291.007 286.13 290.163 286.13C289.557 286.13 289.049 286.35 288.639 286.789C288.229 287.224 288.012 287.778 287.987 288.452H292.345ZM295.326 285.156H296.579V286.269C296.95 285.81 297.343 285.48 297.758 285.28C298.173 285.08 298.634 284.98 299.142 284.98C300.255 284.98 301.007 285.368 301.398 286.145C301.613 286.569 301.72 287.177 301.72 287.968V293H300.38V288.056C300.38 287.578 300.309 287.192 300.167 286.899C299.933 286.411 299.508 286.167 298.893 286.167C298.581 286.167 298.324 286.198 298.124 286.262C297.763 286.369 297.445 286.584 297.172 286.906C296.952 287.165 296.808 287.434 296.74 287.712C296.676 287.985 296.645 288.378 296.645 288.891V293H295.326V285.156ZM303.939 282.966H305.272V285.156H306.525V286.232H305.272V291.352C305.272 291.625 305.365 291.809 305.551 291.901C305.653 291.955 305.824 291.982 306.063 291.982C306.127 291.982 306.195 291.982 306.269 291.982C306.342 291.977 306.427 291.97 306.525 291.96V293C306.374 293.044 306.215 293.076 306.049 293.095C305.888 293.115 305.712 293.125 305.521 293.125C304.906 293.125 304.489 292.968 304.269 292.656C304.049 292.338 303.939 291.928 303.939 291.425V286.232H302.877V285.156H303.939V282.966ZM312.025 285.192H313.366V293H312.025V285.192ZM312.025 282.241H313.366V283.735H312.025V282.241ZM315.365 285.156H316.618V286.269C316.989 285.81 317.382 285.48 317.797 285.28C318.212 285.08 318.673 284.98 319.181 284.98C320.294 284.98 321.046 285.368 321.437 286.145C321.652 286.569 321.759 287.177 321.759 287.968V293H320.419V288.056C320.419 287.578 320.348 287.192 320.207 286.899C319.972 286.411 319.547 286.167 318.932 286.167C318.62 286.167 318.363 286.198 318.163 286.262C317.802 286.369 317.484 286.584 317.211 286.906C316.991 287.165 316.847 287.434 316.779 287.712C316.715 287.985 316.684 288.378 316.684 288.891V293H315.365V285.156ZM46.8667 306.156H48.3242C48.1387 306.659 47.7261 307.806 47.0864 309.598C46.6079 310.946 46.2075 312.044 45.8853 312.894C45.1235 314.896 44.5864 316.117 44.2739 316.556C43.9614 316.996 43.4243 317.215 42.6626 317.215C42.4771 317.215 42.333 317.208 42.2305 317.193C42.1328 317.179 42.0107 317.152 41.8643 317.113V315.912C42.0938 315.975 42.2598 316.014 42.3623 316.029C42.4648 316.043 42.5552 316.051 42.6333 316.051C42.8774 316.051 43.0557 316.009 43.168 315.926C43.2852 315.848 43.3828 315.75 43.4609 315.633C43.4854 315.594 43.5732 315.394 43.7246 315.033C43.876 314.671 43.9858 314.403 44.0542 314.227L41.1538 306.156H42.6479L44.75 312.542L46.8667 306.156ZM52.5796 313.15C53.4536 313.15 54.0518 312.821 54.374 312.162C54.7012 311.498 54.8647 310.76 54.8647 309.95C54.8647 309.217 54.7476 308.622 54.5132 308.163C54.1421 307.44 53.5024 307.079 52.5942 307.079C51.7886 307.079 51.2026 307.386 50.8364 308.001C50.4702 308.617 50.2871 309.359 50.2871 310.228C50.2871 311.063 50.4702 311.759 50.8364 312.315C51.2026 312.872 51.7837 313.15 52.5796 313.15ZM52.6309 305.929C53.6416 305.929 54.4961 306.266 55.1943 306.939C55.8926 307.613 56.2417 308.604 56.2417 309.913C56.2417 311.178 55.9341 312.223 55.3188 313.048C54.7036 313.873 53.749 314.286 52.4551 314.286C51.376 314.286 50.519 313.922 49.8843 313.194C49.2495 312.462 48.9321 311.48 48.9321 310.25C48.9321 308.932 49.2666 307.882 49.9355 307.101C50.6045 306.319 51.5029 305.929 52.6309 305.929ZM59.1348 306.156V311.363C59.1348 311.764 59.1982 312.091 59.3252 312.345C59.5596 312.813 59.9966 313.048 60.6362 313.048C61.5542 313.048 62.1792 312.638 62.5112 311.817C62.6919 311.378 62.7822 310.775 62.7822 310.008V306.156H64.1006V314H62.8555L62.8701 312.843C62.6992 313.141 62.4868 313.392 62.2329 313.597C61.73 314.007 61.1196 314.212 60.4019 314.212C59.2837 314.212 58.522 313.839 58.1167 313.092C57.897 312.691 57.7871 312.157 57.7871 311.488V306.156H59.1348ZM66.2026 306.156H67.4551V307.511C67.5576 307.247 67.8091 306.927 68.2095 306.551C68.6099 306.17 69.0713 305.98 69.5938 305.98C69.6182 305.98 69.6597 305.982 69.7183 305.987C69.7769 305.992 69.877 306.002 70.0186 306.017V307.408C69.9404 307.394 69.8672 307.384 69.7988 307.379C69.7354 307.374 69.6646 307.372 69.5864 307.372C68.9224 307.372 68.4121 307.586 68.0557 308.016C67.6992 308.441 67.521 308.932 67.521 309.488V314H66.2026V306.156ZM76.1196 311.539C76.1587 311.979 76.2686 312.315 76.4492 312.55C76.7812 312.975 77.3574 313.187 78.1777 313.187C78.666 313.187 79.0957 313.082 79.4668 312.872C79.8379 312.657 80.0234 312.328 80.0234 311.883C80.0234 311.546 79.8745 311.29 79.5767 311.114C79.3862 311.007 79.0103 310.882 78.4487 310.741L77.4014 310.477C76.7324 310.311 76.2393 310.125 75.9219 309.92C75.3555 309.564 75.0723 309.071 75.0723 308.441C75.0723 307.699 75.3384 307.098 75.8706 306.639C76.4077 306.18 77.1279 305.951 78.0312 305.951C79.2129 305.951 80.0649 306.297 80.5874 306.991C80.9146 307.43 81.0732 307.904 81.0635 308.412H79.8184C79.7939 308.114 79.689 307.843 79.5034 307.599C79.2007 307.252 78.6758 307.079 77.9287 307.079C77.4307 307.079 77.0522 307.174 76.7935 307.364C76.5396 307.555 76.4126 307.806 76.4126 308.119C76.4126 308.46 76.5811 308.734 76.918 308.939C77.1133 309.061 77.4014 309.168 77.7822 309.261L78.6538 309.474C79.6011 309.703 80.2358 309.925 80.5581 310.14C81.0708 310.477 81.3271 311.007 81.3271 311.729C81.3271 312.428 81.061 313.031 80.5288 313.539C80.0015 314.046 79.1958 314.3 78.1118 314.3C76.9448 314.3 76.1172 314.037 75.6289 313.509C75.1455 312.977 74.8867 312.32 74.8525 311.539H76.1196ZM83.0996 303.966H84.4326V306.156H85.6851V307.232H84.4326V312.352C84.4326 312.625 84.5254 312.809 84.7109 312.901C84.8135 312.955 84.9844 312.982 85.2236 312.982C85.2871 312.982 85.3555 312.982 85.4287 312.982C85.502 312.977 85.5874 312.97 85.6851 312.96V314C85.5337 314.044 85.375 314.076 85.209 314.095C85.0479 314.115 84.8721 314.125 84.6816 314.125C84.0664 314.125 83.6489 313.968 83.4292 313.656C83.2095 313.338 83.0996 312.928 83.0996 312.425V307.232H82.0376V306.156H83.0996V303.966ZM88.0215 311.913C88.0215 312.293 88.1606 312.594 88.439 312.813C88.7173 313.033 89.0469 313.143 89.4277 313.143C89.8916 313.143 90.3408 313.036 90.7754 312.821C91.5078 312.464 91.874 311.881 91.874 311.07V310.008C91.7129 310.111 91.5054 310.196 91.2515 310.265C90.9976 310.333 90.7485 310.382 90.5044 310.411L89.7061 310.514C89.2275 310.577 88.8687 310.677 88.6294 310.814C88.2241 311.043 88.0215 311.41 88.0215 311.913ZM91.2148 309.247C91.5176 309.208 91.7202 309.081 91.8228 308.866C91.8813 308.749 91.9106 308.58 91.9106 308.36C91.9106 307.911 91.7495 307.586 91.4272 307.386C91.1099 307.181 90.6533 307.079 90.0576 307.079C89.3691 307.079 88.8809 307.264 88.5928 307.635C88.4316 307.84 88.3267 308.146 88.2778 308.551H87.0474C87.0718 307.584 87.3843 306.913 87.9849 306.537C88.5903 306.156 89.291 305.965 90.0869 305.965C91.0098 305.965 91.7593 306.141 92.3354 306.493C92.9067 306.844 93.1924 307.391 93.1924 308.133V312.652C93.1924 312.789 93.2192 312.899 93.2729 312.982C93.3315 313.065 93.4512 313.106 93.6318 313.106C93.6904 313.106 93.7563 313.104 93.8296 313.099C93.9028 313.089 93.981 313.077 94.064 313.062V314.037C93.8589 314.095 93.7026 314.132 93.5952 314.146C93.4878 314.161 93.3413 314.168 93.1558 314.168C92.7017 314.168 92.3721 314.007 92.167 313.685C92.0596 313.514 91.9839 313.272 91.9399 312.96C91.6714 313.312 91.2856 313.617 90.7827 313.875C90.2798 314.134 89.7256 314.264 89.1201 314.264C88.3926 314.264 87.7969 314.044 87.333 313.604C86.874 313.16 86.6445 312.606 86.6445 311.942C86.6445 311.214 86.8716 310.65 87.3257 310.25C87.7798 309.85 88.3755 309.603 89.1128 309.51L91.2148 309.247ZM95.624 303.966H96.957V306.156H98.2095V307.232H96.957V312.352C96.957 312.625 97.0498 312.809 97.2354 312.901C97.3379 312.955 97.5088 312.982 97.748 312.982C97.8115 312.982 97.8799 312.982 97.9531 312.982C98.0264 312.977 98.1118 312.97 98.2095 312.96V314C98.0581 314.044 97.8994 314.076 97.7334 314.095C97.5723 314.115 97.3965 314.125 97.2061 314.125C96.5908 314.125 96.1733 313.968 95.9536 313.656C95.7339 313.338 95.624 312.928 95.624 312.425V307.232H94.562V306.156H95.624V303.966ZM102.802 305.98C103.358 305.98 103.898 306.112 104.42 306.375C104.943 306.634 105.341 306.971 105.614 307.386C105.878 307.782 106.054 308.243 106.142 308.771C106.22 309.132 106.259 309.708 106.259 310.499H100.509C100.534 311.295 100.722 311.935 101.073 312.418C101.425 312.896 101.969 313.136 102.707 313.136C103.395 313.136 103.944 312.909 104.354 312.455C104.589 312.191 104.755 311.886 104.853 311.539H106.149C106.115 311.827 106 312.149 105.805 312.506C105.614 312.857 105.399 313.146 105.16 313.37C104.76 313.761 104.264 314.024 103.673 314.161C103.356 314.239 102.997 314.278 102.597 314.278C101.62 314.278 100.792 313.924 100.114 313.216C99.4351 312.503 99.0957 311.507 99.0957 310.228C99.0957 308.968 99.4375 307.945 100.121 307.159C100.805 306.373 101.698 305.98 102.802 305.98ZM104.904 309.452C104.85 308.88 104.726 308.424 104.53 308.082C104.169 307.447 103.566 307.13 102.721 307.13C102.116 307.13 101.608 307.35 101.198 307.789C100.788 308.224 100.57 308.778 100.546 309.452H104.904ZM112.06 306.192H113.4V314H112.06V306.192ZM112.06 303.241H113.4V304.735H112.06V303.241ZM115.399 306.156H116.652V307.269C117.023 306.81 117.416 306.48 117.831 306.28C118.246 306.08 118.708 305.98 119.215 305.98C120.329 305.98 121.081 306.368 121.471 307.145C121.686 307.569 121.793 308.177 121.793 308.968V314H120.453V309.056C120.453 308.578 120.382 308.192 120.241 307.899C120.006 307.411 119.582 307.167 118.966 307.167C118.654 307.167 118.397 307.198 118.197 307.262C117.836 307.369 117.519 307.584 117.245 307.906C117.025 308.165 116.881 308.434 116.813 308.712C116.75 308.985 116.718 309.378 116.718 309.891V314H115.399V306.156ZM132.802 309.591L131.168 304.837L129.433 309.591H132.802ZM130.407 303.241H132.055L135.958 314H134.362L133.271 310.777H129.015L127.851 314H126.356L130.407 303.241ZM140.419 313.114C141.034 313.114 141.544 312.857 141.95 312.345C142.36 311.827 142.565 311.056 142.565 310.03C142.565 309.405 142.475 308.868 142.294 308.419C141.952 307.555 141.327 307.123 140.419 307.123C139.506 307.123 138.881 307.579 138.544 308.492C138.363 308.98 138.273 309.601 138.273 310.353C138.273 310.958 138.363 311.473 138.544 311.898C138.886 312.708 139.511 313.114 140.419 313.114ZM137.006 306.192H138.288V307.232C138.551 306.876 138.839 306.6 139.152 306.405C139.596 306.112 140.119 305.965 140.719 305.965C141.608 305.965 142.362 306.307 142.982 306.991C143.603 307.669 143.913 308.641 143.913 309.906C143.913 311.615 143.466 312.835 142.572 313.568C142.006 314.032 141.347 314.264 140.595 314.264C140.004 314.264 139.508 314.134 139.108 313.875C138.874 313.729 138.612 313.478 138.324 313.121V317.127H137.006V306.192ZM145.495 306.156H146.747V307.511C146.85 307.247 147.101 306.927 147.501 306.551C147.902 306.17 148.363 305.98 148.886 305.98C148.91 305.98 148.952 305.982 149.01 305.987C149.069 305.992 149.169 306.002 149.311 306.017V307.408C149.232 307.394 149.159 307.384 149.091 307.379C149.027 307.374 148.957 307.372 148.878 307.372C148.214 307.372 147.704 307.586 147.348 308.016C146.991 308.441 146.813 308.932 146.813 309.488V314H145.495V306.156ZM150.453 306.192H151.793V314H150.453V306.192ZM150.453 303.241H151.793V304.735H150.453V303.241ZM153.83 303.241H155.148V314H153.83V303.241ZM160.81 314C160.858 313.097 161.044 312.311 161.366 311.642C161.693 310.973 162.328 310.365 163.271 309.818L164.677 309.005C165.307 308.639 165.749 308.326 166.002 308.067C166.403 307.662 166.603 307.198 166.603 306.676C166.603 306.065 166.42 305.582 166.054 305.226C165.688 304.864 165.199 304.684 164.589 304.684C163.686 304.684 163.061 305.025 162.714 305.709C162.528 306.075 162.426 306.583 162.406 307.232H161.066C161.081 306.319 161.249 305.575 161.571 304.999C162.143 303.983 163.151 303.475 164.596 303.475C165.797 303.475 166.674 303.8 167.226 304.449C167.782 305.099 168.061 305.821 168.061 306.617C168.061 307.457 167.765 308.175 167.174 308.771C166.833 309.117 166.22 309.537 165.336 310.03L164.333 310.587C163.854 310.851 163.478 311.102 163.205 311.341C162.716 311.766 162.409 312.237 162.282 312.755H168.009V314H160.81ZM172.748 303.512C174.105 303.512 175.087 304.071 175.692 305.189C176.161 306.053 176.396 307.237 176.396 308.741C176.396 310.167 176.183 311.346 175.758 312.279C175.143 313.617 174.137 314.286 172.741 314.286C171.481 314.286 170.543 313.739 169.928 312.645C169.416 311.732 169.159 310.506 169.159 308.968C169.159 307.777 169.313 306.754 169.621 305.899C170.197 304.308 171.239 303.512 172.748 303.512ZM172.733 313.084C173.417 313.084 173.961 312.782 174.367 312.176C174.772 311.571 174.975 310.443 174.975 308.792C174.975 307.601 174.828 306.622 174.535 305.855C174.242 305.084 173.673 304.698 172.829 304.698C172.052 304.698 171.483 305.064 171.122 305.797C170.766 306.524 170.587 307.599 170.587 309.02C170.587 310.089 170.702 310.948 170.932 311.598C171.283 312.589 171.884 313.084 172.733 313.084ZM177.509 314C177.558 313.097 177.743 312.311 178.065 311.642C178.393 310.973 179.027 310.365 179.97 309.818L181.376 309.005C182.006 308.639 182.448 308.326 182.702 308.067C183.102 307.662 183.302 307.198 183.302 306.676C183.302 306.065 183.119 305.582 182.753 305.226C182.387 304.864 181.898 304.684 181.288 304.684C180.385 304.684 179.76 305.025 179.413 305.709C179.228 306.075 179.125 306.583 179.105 307.232H177.765C177.78 306.319 177.948 305.575 178.271 304.999C178.842 303.983 179.85 303.475 181.295 303.475C182.497 303.475 183.373 303.8 183.925 304.449C184.481 305.099 184.76 305.821 184.76 306.617C184.76 307.457 184.464 308.175 183.874 308.771C183.532 309.117 182.919 309.537 182.035 310.03L181.032 310.587C180.553 310.851 180.177 311.102 179.904 311.341C179.416 311.766 179.108 312.237 178.981 312.755H184.708V314H177.509ZM186.825 306.573V305.562C187.777 305.47 188.441 305.316 188.817 305.101C189.193 304.881 189.474 304.366 189.66 303.556H190.7V314H189.293V306.573H186.825ZM195.021 312.403H196.552V314H195.021V312.403ZM207.882 302.962C208.893 302.962 209.767 303.158 210.504 303.548C211.574 304.11 212.228 305.094 212.467 306.5H211.024C210.849 305.714 210.485 305.143 209.933 304.786C209.381 304.425 208.686 304.244 207.846 304.244C206.85 304.244 206.01 304.618 205.326 305.365C204.647 306.112 204.308 307.225 204.308 308.705C204.308 309.984 204.589 311.026 205.15 311.832C205.712 312.633 206.627 313.033 207.897 313.033C208.869 313.033 209.672 312.752 210.307 312.191C210.946 311.625 211.273 310.711 211.288 309.452H207.919V308.243H212.643V314H211.706L211.354 312.616C210.861 313.158 210.424 313.534 210.043 313.744C209.403 314.105 208.59 314.286 207.604 314.286C206.33 314.286 205.233 313.873 204.315 313.048C203.314 312.013 202.814 310.592 202.814 308.785C202.814 306.983 203.302 305.55 204.279 304.486C205.207 303.47 206.408 302.962 207.882 302.962ZM217.997 305.98C218.554 305.98 219.093 306.112 219.616 306.375C220.138 306.634 220.536 306.971 220.81 307.386C221.073 307.782 221.249 308.243 221.337 308.771C221.415 309.132 221.454 309.708 221.454 310.499H215.705C215.729 311.295 215.917 311.935 216.269 312.418C216.62 312.896 217.165 313.136 217.902 313.136C218.59 313.136 219.14 312.909 219.55 312.455C219.784 312.191 219.95 311.886 220.048 311.539H221.344C221.31 311.827 221.195 312.149 221 312.506C220.81 312.857 220.595 313.146 220.355 313.37C219.955 313.761 219.459 314.024 218.869 314.161C218.551 314.239 218.192 314.278 217.792 314.278C216.815 314.278 215.988 313.924 215.309 313.216C214.63 312.503 214.291 311.507 214.291 310.228C214.291 308.968 214.633 307.945 215.316 307.159C216 306.373 216.894 305.98 217.997 305.98ZM220.099 309.452C220.045 308.88 219.921 308.424 219.726 308.082C219.364 307.447 218.761 307.13 217.917 307.13C217.311 307.13 216.803 307.35 216.393 307.789C215.983 308.224 215.766 308.778 215.741 309.452H220.099ZM223.344 303.966H224.677V306.156H225.929V307.232H224.677V312.352C224.677 312.625 224.77 312.809 224.955 312.901C225.058 312.955 225.229 312.982 225.468 312.982C225.531 312.982 225.6 312.982 225.673 312.982C225.746 312.977 225.832 312.97 225.929 312.96V314C225.778 314.044 225.619 314.076 225.453 314.095C225.292 314.115 225.116 314.125 224.926 314.125C224.311 314.125 223.893 313.968 223.673 313.656C223.454 313.338 223.344 312.928 223.344 312.425V307.232H222.282V306.156H223.344V303.966ZM231.466 306.156H232.719V307.511C232.821 307.247 233.073 306.927 233.473 306.551C233.874 306.17 234.335 305.98 234.857 305.98C234.882 305.98 234.923 305.982 234.982 305.987C235.041 305.992 235.141 306.002 235.282 306.017V307.408C235.204 307.394 235.131 307.384 235.062 307.379C234.999 307.374 234.928 307.372 234.85 307.372C234.186 307.372 233.676 307.586 233.319 308.016C232.963 308.441 232.785 308.932 232.785 309.488V314H231.466V306.156ZM239.691 305.98C240.248 305.98 240.788 306.112 241.31 306.375C241.833 306.634 242.23 306.971 242.504 307.386C242.768 307.782 242.943 308.243 243.031 308.771C243.109 309.132 243.148 309.708 243.148 310.499H237.399C237.423 311.295 237.611 311.935 237.963 312.418C238.314 312.896 238.859 313.136 239.596 313.136C240.285 313.136 240.834 312.909 241.244 312.455C241.479 312.191 241.645 311.886 241.742 311.539H243.039C243.004 311.827 242.89 312.149 242.694 312.506C242.504 312.857 242.289 313.146 242.05 313.37C241.649 313.761 241.154 314.024 240.563 314.161C240.246 314.239 239.887 314.278 239.486 314.278C238.51 314.278 237.682 313.924 237.003 313.216C236.325 312.503 235.985 311.507 235.985 310.228C235.985 308.968 236.327 307.945 237.011 307.159C237.694 306.373 238.588 305.98 239.691 305.98ZM241.793 309.452C241.74 308.88 241.615 308.424 241.42 308.082C241.059 307.447 240.456 307.13 239.611 307.13C239.005 307.13 238.498 307.35 238.087 307.789C237.677 308.224 237.46 308.778 237.436 309.452H241.793ZM245.785 311.913C245.785 312.293 245.924 312.594 246.203 312.813C246.481 313.033 246.811 313.143 247.191 313.143C247.655 313.143 248.104 313.036 248.539 312.821C249.271 312.464 249.638 311.881 249.638 311.07V310.008C249.477 310.111 249.269 310.196 249.015 310.265C248.761 310.333 248.512 310.382 248.268 310.411L247.47 310.514C246.991 310.577 246.632 310.677 246.393 310.814C245.988 311.043 245.785 311.41 245.785 311.913ZM248.979 309.247C249.281 309.208 249.484 309.081 249.586 308.866C249.645 308.749 249.674 308.58 249.674 308.36C249.674 307.911 249.513 307.586 249.191 307.386C248.874 307.181 248.417 307.079 247.821 307.079C247.133 307.079 246.645 307.264 246.356 307.635C246.195 307.84 246.09 308.146 246.042 308.551H244.811C244.835 307.584 245.148 306.913 245.749 306.537C246.354 306.156 247.055 305.965 247.851 305.965C248.773 305.965 249.523 306.141 250.099 306.493C250.67 306.844 250.956 307.391 250.956 308.133V312.652C250.956 312.789 250.983 312.899 251.037 312.982C251.095 313.065 251.215 313.106 251.396 313.106C251.454 313.106 251.52 313.104 251.593 313.099C251.667 313.089 251.745 313.077 251.828 313.062V314.037C251.623 314.095 251.466 314.132 251.359 314.146C251.251 314.161 251.105 314.168 250.919 314.168C250.465 314.168 250.136 314.007 249.931 313.685C249.823 313.514 249.748 313.272 249.704 312.96C249.435 313.312 249.049 313.617 248.546 313.875C248.043 314.134 247.489 314.264 246.884 314.264C246.156 314.264 245.561 314.044 245.097 313.604C244.638 313.16 244.408 312.606 244.408 311.942C244.408 311.214 244.635 310.65 245.089 310.25C245.543 309.85 246.139 309.603 246.876 309.51L248.979 309.247ZM253.959 310.169C253.959 311.009 254.137 311.712 254.494 312.279C254.85 312.845 255.421 313.128 256.208 313.128C256.818 313.128 257.318 312.867 257.709 312.345C258.104 311.817 258.302 311.063 258.302 310.082C258.302 309.09 258.1 308.358 257.694 307.884C257.289 307.406 256.789 307.167 256.193 307.167C255.529 307.167 254.989 307.42 254.574 307.928C254.164 308.436 253.959 309.183 253.959 310.169ZM255.944 306.017C256.544 306.017 257.047 306.144 257.453 306.397C257.687 306.544 257.953 306.8 258.251 307.167V303.204H259.518V314H258.332V312.909C258.024 313.392 257.66 313.741 257.24 313.956C256.82 314.171 256.339 314.278 255.797 314.278C254.923 314.278 254.167 313.912 253.527 313.18C252.887 312.442 252.567 311.463 252.567 310.243C252.567 309.1 252.858 308.111 253.439 307.276C254.025 306.437 254.86 306.017 255.944 306.017ZM266.374 306.156H267.831C267.646 306.659 267.233 307.806 266.593 309.598C266.115 310.946 265.714 312.044 265.392 312.894C264.63 314.896 264.093 316.117 263.781 316.556C263.468 316.996 262.931 317.215 262.169 317.215C261.984 317.215 261.84 317.208 261.737 317.193C261.64 317.179 261.518 317.152 261.371 317.113V315.912C261.601 315.975 261.767 316.014 261.869 316.029C261.972 316.043 262.062 316.051 262.14 316.051C262.384 316.051 262.562 316.009 262.675 315.926C262.792 315.848 262.89 315.75 262.968 315.633C262.992 315.594 263.08 315.394 263.231 315.033C263.383 314.671 263.493 314.403 263.561 314.227L260.661 306.156H262.155L264.257 312.542L266.374 306.156ZM273.478 304.962C273.498 304.415 273.593 304.015 273.764 303.761C274.071 303.312 274.665 303.087 275.543 303.087C275.626 303.087 275.712 303.089 275.8 303.094C275.888 303.099 275.988 303.106 276.1 303.116V304.317C275.963 304.308 275.863 304.303 275.8 304.303C275.741 304.298 275.685 304.295 275.631 304.295C275.231 304.295 274.992 304.4 274.914 304.61C274.835 304.815 274.796 305.343 274.796 306.192H276.1V307.232H274.782V314H273.478V307.232H272.387V306.192H273.478V304.962ZM280.436 313.15C281.31 313.15 281.908 312.821 282.23 312.162C282.558 311.498 282.721 310.76 282.721 309.95C282.721 309.217 282.604 308.622 282.37 308.163C281.999 307.44 281.359 307.079 280.451 307.079C279.645 307.079 279.059 307.386 278.693 308.001C278.327 308.617 278.144 309.359 278.144 310.228C278.144 311.063 278.327 311.759 278.693 312.315C279.059 312.872 279.64 313.15 280.436 313.15ZM280.487 305.929C281.498 305.929 282.353 306.266 283.051 306.939C283.749 307.613 284.098 308.604 284.098 309.913C284.098 311.178 283.791 312.223 283.175 313.048C282.56 313.873 281.605 314.286 280.312 314.286C279.232 314.286 278.375 313.922 277.741 313.194C277.106 312.462 276.789 311.48 276.789 310.25C276.789 308.932 277.123 307.882 277.792 307.101C278.461 306.319 279.359 305.929 280.487 305.929ZM285.709 306.156H286.962V307.511C287.064 307.247 287.316 306.927 287.716 306.551C288.117 306.17 288.578 305.98 289.101 305.98C289.125 305.98 289.167 305.982 289.225 305.987C289.284 305.992 289.384 306.002 289.525 306.017V307.408C289.447 307.394 289.374 307.384 289.306 307.379C289.242 307.374 289.171 307.372 289.093 307.372C288.429 307.372 287.919 307.586 287.562 308.016C287.206 308.441 287.028 308.932 287.028 309.488V314H285.709V306.156ZM294.843 306.192H296.183V314H294.843V306.192ZM294.843 303.241H296.183V304.735H294.843V303.241ZM298.446 303.966H299.779V306.156H301.032V307.232H299.779V312.352C299.779 312.625 299.872 312.809 300.058 312.901C300.16 312.955 300.331 312.982 300.57 312.982C300.634 312.982 300.702 312.982 300.775 312.982C300.849 312.977 300.934 312.97 301.032 312.96V314C300.88 314.044 300.722 314.076 300.556 314.095C300.395 314.115 300.219 314.125 300.028 314.125C299.413 314.125 298.996 313.968 298.776 313.656C298.556 313.338 298.446 312.928 298.446 312.425V307.232H297.384V306.156H298.446V303.966ZM302.672 312.403H304.203V314H302.672V312.403ZM42.2817 324.241H49.7451V325.559H43.7393V328.826H49.02V330.107H43.7393V335H42.2817V324.241ZM51.1367 327.192H52.4771V335H51.1367V327.192ZM51.1367 324.241H52.4771V325.735H51.1367V324.241ZM54.4766 327.156H55.729V328.269C56.1001 327.81 56.4932 327.48 56.9082 327.28C57.3232 327.08 57.7847 326.98 58.2925 326.98C59.4058 326.98 60.1577 327.368 60.5483 328.145C60.7632 328.569 60.8706 329.177 60.8706 329.968V335H59.5303V330.056C59.5303 329.578 59.4595 329.192 59.3179 328.899C59.0835 328.411 58.6587 328.167 58.0435 328.167C57.731 328.167 57.4746 328.198 57.2744 328.262C56.9131 328.369 56.5957 328.584 56.3223 328.906C56.1025 329.165 55.9585 329.434 55.8901 329.712C55.8267 329.985 55.7949 330.378 55.7949 330.891V335H54.4766V327.156ZM63.6611 331.169C63.6611 332.009 63.8394 332.712 64.1958 333.279C64.5522 333.845 65.1235 334.128 65.9097 334.128C66.52 334.128 67.0205 333.867 67.4111 333.345C67.8066 332.817 68.0044 332.063 68.0044 331.082C68.0044 330.09 67.8018 329.358 67.3965 328.884C66.9912 328.406 66.4907 328.167 65.895 328.167C65.231 328.167 64.6914 328.42 64.2764 328.928C63.8662 329.436 63.6611 330.183 63.6611 331.169ZM65.646 327.017C66.2466 327.017 66.7495 327.144 67.1548 327.397C67.3892 327.544 67.6553 327.8 67.9531 328.167V324.204H69.2202V335H68.0337V333.909C67.7261 334.392 67.3623 334.741 66.9424 334.956C66.5225 335.171 66.0415 335.278 65.4995 335.278C64.6255 335.278 63.8687 334.912 63.229 334.18C62.5894 333.442 62.2695 332.463 62.2695 331.243C62.2695 330.1 62.5601 329.111 63.1411 328.276C63.7271 327.437 64.562 327.017 65.646 327.017ZM75.3506 327.156H76.6543V328.269C76.9668 327.883 77.25 327.603 77.5039 327.427C77.9385 327.129 78.4316 326.98 78.9834 326.98C79.6084 326.98 80.1113 327.134 80.4922 327.441C80.707 327.617 80.9023 327.876 81.0781 328.218C81.3711 327.798 81.7153 327.488 82.1108 327.288C82.5063 327.083 82.9507 326.98 83.4438 326.98C84.4985 326.98 85.2163 327.361 85.5972 328.123C85.8022 328.533 85.9048 329.084 85.9048 329.778V335H84.5352V329.551C84.5352 329.028 84.4033 328.669 84.1396 328.474C83.8809 328.279 83.5635 328.181 83.1875 328.181C82.6699 328.181 82.2231 328.354 81.8472 328.701C81.4761 329.048 81.2905 329.626 81.2905 330.437V335H79.9502V329.88C79.9502 329.348 79.8867 328.96 79.7598 328.716C79.5596 328.35 79.186 328.167 78.6392 328.167C78.1411 328.167 77.687 328.359 77.2769 328.745C76.8716 329.131 76.6689 329.829 76.6689 330.84V335H75.3506V327.156ZM90.9585 334.15C91.8325 334.15 92.4307 333.821 92.7529 333.162C93.0801 332.498 93.2437 331.76 93.2437 330.95C93.2437 330.217 93.1265 329.622 92.8921 329.163C92.521 328.44 91.8813 328.079 90.9731 328.079C90.1675 328.079 89.5815 328.386 89.2153 329.001C88.8491 329.617 88.666 330.359 88.666 331.228C88.666 332.063 88.8491 332.759 89.2153 333.315C89.5815 333.872 90.1626 334.15 90.9585 334.15ZM91.0098 326.929C92.0205 326.929 92.875 327.266 93.5732 327.939C94.2715 328.613 94.6206 329.604 94.6206 330.913C94.6206 332.178 94.313 333.223 93.6978 334.048C93.0825 334.873 92.1279 335.286 90.834 335.286C89.7549 335.286 88.8979 334.922 88.2632 334.194C87.6284 333.462 87.311 332.48 87.311 331.25C87.311 329.932 87.6455 328.882 88.3145 328.101C88.9834 327.319 89.8818 326.929 91.0098 326.929ZM96.2319 327.156H97.4844V328.511C97.5869 328.247 97.8384 327.927 98.2388 327.551C98.6392 327.17 99.1006 326.98 99.623 326.98C99.6475 326.98 99.689 326.982 99.7476 326.987C99.8062 326.992 99.9062 327.002 100.048 327.017V328.408C99.9697 328.394 99.8965 328.384 99.8281 328.379C99.7646 328.374 99.6938 328.372 99.6157 328.372C98.9517 328.372 98.4414 328.586 98.085 329.016C97.7285 329.441 97.5503 329.932 97.5503 330.488V335H96.2319V327.156ZM104.457 326.98C105.014 326.98 105.553 327.112 106.076 327.375C106.598 327.634 106.996 327.971 107.27 328.386C107.533 328.782 107.709 329.243 107.797 329.771C107.875 330.132 107.914 330.708 107.914 331.499H102.165C102.189 332.295 102.377 332.935 102.729 333.418C103.08 333.896 103.625 334.136 104.362 334.136C105.05 334.136 105.6 333.909 106.01 333.455C106.244 333.191 106.41 332.886 106.508 332.539H107.804C107.77 332.827 107.655 333.149 107.46 333.506C107.27 333.857 107.055 334.146 106.815 334.37C106.415 334.761 105.919 335.024 105.329 335.161C105.011 335.239 104.652 335.278 104.252 335.278C103.275 335.278 102.448 334.924 101.769 334.216C101.09 333.503 100.751 332.507 100.751 331.228C100.751 329.968 101.093 328.945 101.776 328.159C102.46 327.373 103.354 326.98 104.457 326.98ZM106.559 330.452C106.505 329.88 106.381 329.424 106.186 329.082C105.824 328.447 105.221 328.13 104.376 328.13C103.771 328.13 103.263 328.35 102.853 328.789C102.443 329.224 102.226 329.778 102.201 330.452H106.559ZM113.715 327.192H115.055V335H113.715V327.192ZM113.715 324.241H115.055V325.735H113.715V324.241ZM117.055 327.156H118.307V328.269C118.678 327.81 119.071 327.48 119.486 327.28C119.901 327.08 120.363 326.98 120.871 326.98C121.984 326.98 122.736 327.368 123.126 328.145C123.341 328.569 123.449 329.177 123.449 329.968V335H122.108V330.056C122.108 329.578 122.038 329.192 121.896 328.899C121.662 328.411 121.237 328.167 120.622 328.167C120.309 328.167 120.053 328.198 119.853 328.262C119.491 328.369 119.174 328.584 118.9 328.906C118.681 329.165 118.537 329.434 118.468 329.712C118.405 329.985 118.373 330.378 118.373 330.891V335H117.055V327.156ZM125.734 325.962C125.753 325.415 125.849 325.015 126.02 324.761C126.327 324.312 126.92 324.087 127.799 324.087C127.882 324.087 127.968 324.089 128.056 324.094C128.144 324.099 128.244 324.106 128.356 324.116V325.317C128.219 325.308 128.119 325.303 128.056 325.303C127.997 325.298 127.941 325.295 127.887 325.295C127.487 325.295 127.248 325.4 127.169 325.61C127.091 325.815 127.052 326.343 127.052 327.192H128.356V328.232H127.038V335H125.734V328.232H124.643V327.192H125.734V325.962ZM132.692 334.15C133.566 334.15 134.164 333.821 134.486 333.162C134.813 332.498 134.977 331.76 134.977 330.95C134.977 330.217 134.86 329.622 134.625 329.163C134.254 328.44 133.615 328.079 132.707 328.079C131.901 328.079 131.315 328.386 130.949 329.001C130.583 329.617 130.399 330.359 130.399 331.228C130.399 332.063 130.583 332.759 130.949 333.315C131.315 333.872 131.896 334.15 132.692 334.15ZM132.743 326.929C133.754 326.929 134.608 327.266 135.307 327.939C136.005 328.613 136.354 329.604 136.354 330.913C136.354 332.178 136.046 333.223 135.431 334.048C134.816 334.873 133.861 335.286 132.567 335.286C131.488 335.286 130.631 334.922 129.997 334.194C129.362 333.462 129.044 332.48 129.044 331.25C129.044 329.932 129.379 328.882 130.048 328.101C130.717 327.319 131.615 326.929 132.743 326.929ZM137.965 327.156H139.218V328.511C139.32 328.247 139.572 327.927 139.972 327.551C140.373 327.17 140.834 326.98 141.356 326.98C141.381 326.98 141.422 326.982 141.481 326.987C141.54 326.992 141.64 327.002 141.781 327.017V328.408C141.703 328.394 141.63 328.384 141.562 328.379C141.498 328.374 141.427 328.372 141.349 328.372C140.685 328.372 140.175 328.586 139.818 329.016C139.462 329.441 139.284 329.932 139.284 330.488V335H137.965V327.156ZM142.924 327.156H144.228V328.269C144.54 327.883 144.823 327.603 145.077 327.427C145.512 327.129 146.005 326.98 146.557 326.98C147.182 326.98 147.685 327.134 148.065 327.441C148.28 327.617 148.476 327.876 148.651 328.218C148.944 327.798 149.289 327.488 149.684 327.288C150.08 327.083 150.524 326.98 151.017 326.98C152.072 326.98 152.79 327.361 153.17 328.123C153.375 328.533 153.478 329.084 153.478 329.778V335H152.108V329.551C152.108 329.028 151.977 328.669 151.713 328.474C151.454 328.279 151.137 328.181 150.761 328.181C150.243 328.181 149.796 328.354 149.42 328.701C149.049 329.048 148.864 329.626 148.864 330.437V335H147.523V329.88C147.523 329.348 147.46 328.96 147.333 328.716C147.133 328.35 146.759 328.167 146.212 328.167C145.714 328.167 145.26 328.359 144.85 328.745C144.445 329.131 144.242 329.829 144.242 330.84V335H142.924V327.156ZM156.43 332.913C156.43 333.293 156.569 333.594 156.847 333.813C157.125 334.033 157.455 334.143 157.836 334.143C158.3 334.143 158.749 334.036 159.184 333.821C159.916 333.464 160.282 332.881 160.282 332.07V331.008C160.121 331.111 159.914 331.196 159.66 331.265C159.406 331.333 159.157 331.382 158.913 331.411L158.114 331.514C157.636 331.577 157.277 331.677 157.038 331.814C156.632 332.043 156.43 332.41 156.43 332.913ZM159.623 330.247C159.926 330.208 160.128 330.081 160.231 329.866C160.29 329.749 160.319 329.58 160.319 329.36C160.319 328.911 160.158 328.586 159.835 328.386C159.518 328.181 159.062 328.079 158.466 328.079C157.777 328.079 157.289 328.264 157.001 328.635C156.84 328.84 156.735 329.146 156.686 329.551H155.456C155.48 328.584 155.792 327.913 156.393 327.537C156.999 327.156 157.699 326.965 158.495 326.965C159.418 326.965 160.167 327.141 160.744 327.493C161.315 327.844 161.601 328.391 161.601 329.133V333.652C161.601 333.789 161.627 333.899 161.681 333.982C161.74 334.065 161.859 334.106 162.04 334.106C162.099 334.106 162.165 334.104 162.238 334.099C162.311 334.089 162.389 334.077 162.472 334.062V335.037C162.267 335.095 162.111 335.132 162.003 335.146C161.896 335.161 161.75 335.168 161.564 335.168C161.11 335.168 160.78 335.007 160.575 334.685C160.468 334.514 160.392 334.272 160.348 333.96C160.08 334.312 159.694 334.617 159.191 334.875C158.688 335.134 158.134 335.264 157.528 335.264C156.801 335.264 156.205 335.044 155.741 334.604C155.282 334.16 155.053 333.606 155.053 332.942C155.053 332.214 155.28 331.65 155.734 331.25C156.188 330.85 156.784 330.603 157.521 330.51L159.623 330.247ZM164.032 324.966H165.365V327.156H166.618V328.232H165.365V333.352C165.365 333.625 165.458 333.809 165.644 333.901C165.746 333.955 165.917 333.982 166.156 333.982C166.22 333.982 166.288 333.982 166.361 333.982C166.435 333.977 166.52 333.97 166.618 333.96V335C166.466 335.044 166.308 335.076 166.142 335.095C165.98 335.115 165.805 335.125 165.614 335.125C164.999 335.125 164.582 334.968 164.362 334.656C164.142 334.338 164.032 333.928 164.032 333.425V328.232H162.97V327.156H164.032V324.966ZM167.943 327.192H169.284V335H167.943V327.192ZM167.943 324.241H169.284V325.735H167.943V324.241ZM174.396 334.15C175.27 334.15 175.868 333.821 176.19 333.162C176.518 332.498 176.681 331.76 176.681 330.95C176.681 330.217 176.564 329.622 176.33 329.163C175.958 328.44 175.319 328.079 174.411 328.079C173.605 328.079 173.019 328.386 172.653 329.001C172.287 329.617 172.104 330.359 172.104 331.228C172.104 332.063 172.287 332.759 172.653 333.315C173.019 333.872 173.6 334.15 174.396 334.15ZM174.447 326.929C175.458 326.929 176.312 327.266 177.011 327.939C177.709 328.613 178.058 329.604 178.058 330.913C178.058 332.178 177.75 333.223 177.135 334.048C176.52 334.873 175.565 335.286 174.271 335.286C173.192 335.286 172.335 334.922 171.701 334.194C171.066 333.462 170.749 332.48 170.749 331.25C170.749 329.932 171.083 328.882 171.752 328.101C172.421 327.319 173.319 326.929 174.447 326.929ZM179.633 327.156H180.885V328.269C181.256 327.81 181.649 327.48 182.064 327.28C182.479 327.08 182.941 326.98 183.449 326.98C184.562 326.98 185.314 327.368 185.705 328.145C185.919 328.569 186.027 329.177 186.027 329.968V335H184.687V330.056C184.687 329.578 184.616 329.192 184.474 328.899C184.24 328.411 183.815 328.167 183.2 328.167C182.887 328.167 182.631 328.198 182.431 328.262C182.069 328.369 181.752 328.584 181.479 328.906C181.259 329.165 181.115 329.434 181.046 329.712C180.983 329.985 180.951 330.378 180.951 330.891V335H179.633V327.156ZM196.566 326.812C197.06 326.812 197.506 326.897 197.907 327.068C198.312 327.239 198.644 327.5 198.903 327.852C199.123 328.149 199.257 328.457 199.306 328.774C199.354 329.087 199.379 329.6 199.379 330.312V335H197.248V330.144C197.248 329.714 197.174 329.368 197.028 329.104C196.837 328.733 196.476 328.547 195.944 328.547C195.392 328.547 194.972 328.733 194.684 329.104C194.401 329.47 194.259 329.995 194.259 330.679V335H192.179V324.241H194.259V328.057C194.562 327.593 194.911 327.271 195.307 327.09C195.707 326.904 196.127 326.812 196.566 326.812ZM204.484 328.525C204 328.525 203.625 328.677 203.356 328.979C203.092 329.282 202.926 329.692 202.858 330.21H206.103C206.068 329.658 205.9 329.241 205.597 328.958C205.299 328.669 204.928 328.525 204.484 328.525ZM204.484 326.804C205.148 326.804 205.746 326.929 206.278 327.178C206.811 327.427 207.25 327.82 207.597 328.357C207.909 328.831 208.112 329.38 208.205 330.005C208.258 330.371 208.28 330.898 208.271 331.587H202.807C202.836 332.388 203.087 332.949 203.561 333.271C203.849 333.472 204.196 333.572 204.601 333.572C205.031 333.572 205.38 333.45 205.648 333.206C205.795 333.074 205.924 332.891 206.037 332.656H208.168C208.114 333.13 207.868 333.611 207.428 334.099C206.745 334.875 205.788 335.264 204.557 335.264C203.542 335.264 202.646 334.937 201.869 334.282C201.093 333.628 200.705 332.563 200.705 331.089C200.705 329.707 201.054 328.647 201.752 327.91C202.455 327.173 203.366 326.804 204.484 326.804ZM214.02 326.826C214.059 326.826 214.091 326.829 214.115 326.833C214.145 326.833 214.206 326.836 214.298 326.841V328.979C214.167 328.965 214.049 328.955 213.947 328.95C213.844 328.945 213.761 328.943 213.698 328.943C212.858 328.943 212.294 329.216 212.006 329.763C211.845 330.071 211.764 330.544 211.764 331.184V335H209.662V327.017H211.654V328.408C211.977 327.876 212.257 327.512 212.497 327.317C212.887 326.99 213.395 326.826 214.02 326.826ZM218.678 328.525C218.195 328.525 217.819 328.677 217.55 328.979C217.287 329.282 217.121 329.692 217.052 330.21H220.297C220.263 329.658 220.094 329.241 219.792 328.958C219.494 328.669 219.123 328.525 218.678 328.525ZM218.678 326.804C219.342 326.804 219.94 326.929 220.473 327.178C221.005 327.427 221.444 327.82 221.791 328.357C222.104 328.831 222.306 329.38 222.399 330.005C222.453 330.371 222.475 330.898 222.465 331.587H217.001C217.03 332.388 217.282 332.949 217.755 333.271C218.043 333.472 218.39 333.572 218.795 333.572C219.225 333.572 219.574 333.45 219.843 333.206C219.989 333.074 220.119 332.891 220.231 332.656H222.362C222.309 333.13 222.062 333.611 221.623 334.099C220.939 334.875 219.982 335.264 218.751 335.264C217.736 335.264 216.84 334.937 216.063 334.282C215.287 333.628 214.899 332.563 214.899 331.089C214.899 329.707 215.248 328.647 215.946 327.91C216.649 327.173 217.56 326.804 218.678 326.804ZM224.186 333.403H225.717V335H224.186V333.403Z" fill="#32323A"/>
<path d="M166.757 295.234H265.978V295.974H166.757V295.234Z" fill="#32323A"/>
<path d="M191.19 337.234H222.897V337.974H191.19V337.234Z" fill="#32323A"/>
<path d="M42.1279 268V257.204H44.3618V261.32H48.5806V257.204H50.8218V268H48.5806V263.181H44.3618V268H42.1279ZM55.9634 261.525C55.48 261.525 55.104 261.677 54.8354 261.979C54.5718 262.282 54.4058 262.692 54.3374 263.21H57.582C57.5479 262.658 57.3794 262.241 57.0767 261.958C56.7788 261.669 56.4077 261.525 55.9634 261.525ZM55.9634 259.804C56.6274 259.804 57.2256 259.929 57.7578 260.178C58.29 260.427 58.7295 260.82 59.0762 261.357C59.3887 261.831 59.5913 262.38 59.6841 263.005C59.7378 263.371 59.7598 263.898 59.75 264.587H54.2861C54.3154 265.388 54.5669 265.949 55.0405 266.271C55.3286 266.472 55.6753 266.572 56.0806 266.572C56.5103 266.572 56.8594 266.45 57.1279 266.206C57.2744 266.074 57.4038 265.891 57.5161 265.656H59.6475C59.5938 266.13 59.3472 266.611 58.9077 267.099C58.2241 267.875 57.2671 268.264 56.0366 268.264C55.021 268.264 54.125 267.937 53.3486 267.282C52.5723 266.628 52.1841 265.563 52.1841 264.089C52.1841 262.707 52.5332 261.647 53.2314 260.91C53.9346 260.173 54.8452 259.804 55.9634 259.804ZM61.4858 269.531L61.7495 269.545C61.9546 269.555 62.1499 269.548 62.3354 269.523C62.521 269.499 62.6772 269.443 62.8042 269.355C62.9263 269.272 63.0386 269.099 63.1411 268.835C63.2485 268.571 63.2925 268.41 63.2729 268.352L60.3433 260.017H62.665L64.4082 265.905L66.0562 260.017H68.2754L65.5361 267.868C65.0088 269.382 64.5913 270.319 64.2837 270.681C63.9761 271.047 63.3608 271.23 62.438 271.23C62.2524 271.23 62.1035 271.228 61.9912 271.223C61.8789 271.223 61.7104 271.215 61.4858 271.201V269.531ZM81.8398 259.116H76.127V261.408H81.3711V263.283H76.127V266.059H82.1035V268H73.9224V257.204H81.8398V259.116ZM88.0068 259.841C89.0566 259.841 89.877 260.219 90.4678 260.976C91.0635 261.733 91.3613 262.709 91.3613 263.906C91.3613 265.146 91.0684 266.174 90.4824 266.989C89.8965 267.805 89.0786 268.212 88.0288 268.212C87.3696 268.212 86.8398 268.081 86.4395 267.817C86.2002 267.661 85.9414 267.387 85.6631 266.997V268H83.6196V257.219H85.6997V261.057C85.9634 260.686 86.2539 260.402 86.5713 260.207C86.9473 259.963 87.4258 259.841 88.0068 259.841ZM87.4722 266.491C88.0093 266.491 88.4268 266.274 88.7246 265.839C89.0225 265.405 89.1714 264.833 89.1714 264.125C89.1714 263.559 89.0981 263.09 88.9517 262.719C88.6733 262.016 88.1606 261.665 87.4136 261.665C86.6567 261.665 86.1367 262.009 85.8535 262.697C85.707 263.063 85.6338 263.537 85.6338 264.118C85.6338 264.802 85.7852 265.368 86.0879 265.817C86.3906 266.267 86.8521 266.491 87.4722 266.491ZM95.0088 259.064H92.8921V257.138H95.0088V259.064ZM92.8921 260.017H95.0088V268H92.8921V260.017ZM97.0156 257.241H99.0664V263.056L101.667 260.053H104.252L101.461 263.107L104.362 268H101.842L99.9307 264.587L99.0664 265.488V268H97.0156V257.241ZM108.537 261.525C108.053 261.525 107.677 261.677 107.409 261.979C107.145 262.282 106.979 262.692 106.911 263.21H110.155C110.121 262.658 109.953 262.241 109.65 261.958C109.352 261.669 108.981 261.525 108.537 261.525ZM108.537 259.804C109.201 259.804 109.799 259.929 110.331 260.178C110.863 260.427 111.303 260.82 111.649 261.357C111.962 261.831 112.165 262.38 112.257 263.005C112.311 263.371 112.333 263.898 112.323 264.587H106.859C106.889 265.388 107.14 265.949 107.614 266.271C107.902 266.472 108.249 266.572 108.654 266.572C109.083 266.572 109.433 266.45 109.701 266.206C109.848 266.074 109.977 265.891 110.089 265.656H112.221C112.167 266.13 111.92 266.611 111.481 267.099C110.797 267.875 109.84 268.264 108.61 268.264C107.594 268.264 106.698 267.937 105.922 267.282C105.146 266.628 104.757 265.563 104.757 264.089C104.757 262.707 105.106 261.647 105.805 260.91C106.508 260.173 107.418 259.804 108.537 259.804ZM122.658 259.841C123.009 259.841 123.356 259.909 123.698 260.046C124.04 260.183 124.35 260.422 124.628 260.764C124.853 261.042 125.004 261.384 125.082 261.789C125.131 262.058 125.155 262.451 125.155 262.968L125.141 268H123.002V262.917C123.002 262.614 122.953 262.365 122.855 262.17C122.67 261.799 122.328 261.613 121.83 261.613C121.254 261.613 120.856 261.853 120.636 262.331C120.524 262.585 120.468 262.89 120.468 263.247V268H118.366V263.247C118.366 262.773 118.317 262.429 118.219 262.214C118.043 261.828 117.699 261.635 117.187 261.635C116.591 261.635 116.19 261.828 115.985 262.214C115.873 262.434 115.817 262.761 115.817 263.195V268H113.7V260.031H115.729V261.196C115.988 260.781 116.232 260.485 116.461 260.31C116.867 259.997 117.392 259.841 118.036 259.841C118.646 259.841 119.14 259.975 119.516 260.244C119.818 260.493 120.048 260.812 120.204 261.203C120.478 260.734 120.817 260.39 121.222 260.17C121.652 259.951 122.13 259.841 122.658 259.841ZM130.663 266.528C131.273 266.528 131.742 266.311 132.069 265.876C132.396 265.441 132.56 264.824 132.56 264.023C132.56 263.222 132.396 262.607 132.069 262.177C131.742 261.743 131.273 261.525 130.663 261.525C130.053 261.525 129.582 261.743 129.25 262.177C128.922 262.607 128.759 263.222 128.759 264.023C128.759 264.824 128.922 265.441 129.25 265.876C129.582 266.311 130.053 266.528 130.663 266.528ZM134.75 264.023C134.75 265.195 134.413 266.198 133.739 267.033C133.065 267.863 132.042 268.278 130.67 268.278C129.298 268.278 128.275 267.863 127.602 267.033C126.928 266.198 126.591 265.195 126.591 264.023C126.591 262.871 126.928 261.872 127.602 261.027C128.275 260.183 129.298 259.76 130.67 259.76C132.042 259.76 133.065 260.183 133.739 261.027C134.413 261.872 134.75 262.871 134.75 264.023ZM136.142 269.736C136.562 269.619 136.869 269.423 137.064 269.15C137.265 268.876 137.379 268.493 137.409 268H136.142V265.817H138.397V267.707C138.397 268.039 138.354 268.386 138.266 268.747C138.178 269.108 138.014 269.421 137.775 269.685C137.516 269.968 137.211 270.18 136.859 270.322C136.513 270.468 136.273 270.542 136.142 270.542V269.736Z" fill="#32323A"/>
<path d="M61 225C72.0457 225 81 216.046 81 205C81 193.954 72.0457 185 61 185C49.9543 185 41 193.954 41 205C41 216.046 49.9543 225 61 225Z" fill="#23CD5D"/>
<path d="M69 201.246L65.373 205L69 208.754L65.8611 212L61.2945 207.274H57.4375V211.889H53V198.111H57.4375V202.704H61.3182L65.8611 198L69 201.246Z" fill="white"/>
<rect width="375" height="126" rx="20" fill="white"/>
<circle cx="135.638" cy="63" r="25" fill="#EBEBEB"/>
<path d="M144 59.3618V63.7308C144 66.1284 142.038 68.0926 139.639 68.0926H137.358L132.831 70.9137C132.281 71.1863 131.636 70.7895 131.636 70.1761V68.0293C129.58 67.6837 128 65.8825 128 63.7308V59.3618C128 56.9618 129.962 55 132.361 55H139.639C142.038 55 144 56.9618 144 59.3618Z" stroke="#99999D" stroke-width="1.5" stroke-miterlimit="10" stroke-linecap="round" stroke-linejoin="round"/>
<path d="M131.636 58.6362H140.364" stroke="#99999D" stroke-width="1.5" stroke-miterlimit="10" stroke-linecap="round" stroke-linejoin="round"/>
<path d="M131.636 61.5449H140.364" stroke="#99999D" stroke-width="1.5" stroke-miterlimit="10" stroke-linecap="round" stroke-linejoin="round"/>
<path d="M131.636 64.4561H138.183" stroke="#99999D" stroke-width="1.5" stroke-miterlimit="10" stroke-linecap="round" stroke-linejoin="round"/>
<circle cx="205" cy="63" r="25" fill="#EBEBEB"/>
<path d="M199.34 63.5552C200.634 65.6216 202.384 67.3716 204.449 68.6665" stroke="#99999D" stroke-width="1.5" stroke-miterlimit="10" stroke-linecap="round" stroke-linejoin="round"/>
<path d="M212.998 69.1825C212.998 70.2632 212.022 71.1199 210.95 70.9861C208.585 70.6891 206.379 69.8762 204.449 68.6665" stroke="#99999D" stroke-width="1.5" stroke-miterlimit="10" stroke-linecap="round" stroke-linejoin="round"/>
<path d="M199.34 63.5553C198.126 61.6179 197.312 59.403 197.014 57.025C196.88 55.9517 197.711 55 198.789 55" stroke="#99999D" stroke-width="1.5" stroke-miterlimit="10" stroke-linecap="round" stroke-linejoin="round"/>
<path d="M199.34 63.5553L202.409 60.4618C203.035 59.8314 203.264 58.9089 203.003 58.0595L202.591 56.7135C202.284 55.6937 201.343 55 200.281 55H198.911" stroke="#99999D" stroke-width="1.5" stroke-miterlimit="10" stroke-linecap="round" stroke-linejoin="round"/>
<path d="M204.449 68.6668L207.554 65.5951C208.183 64.972 209.102 64.7433 209.951 64.9964L211.274 65.3931C212.298 65.6998 213 66.6393 213 67.7054V69.1803" stroke="#99999D" stroke-width="1.5" stroke-miterlimit="10" stroke-linecap="round" stroke-linejoin="round"/>
<circle cx="66" cy="62.9834" r="25" fill="#23CD5D"/>
<path d="M70.5532 68.9216H61.4493C59.5457 68.9216 58 67.3844 58 65.489V59.3306C58 57.4376 59.5457 55.9004 61.4493 55.9004H70.5507C72.4567 55.9004 74 57.4376 74 59.3306V65.489C74.0024 67.3844 72.4567 68.9216 70.5532 68.9216Z" stroke="white" stroke-width="1.5" stroke-miterlimit="10" stroke-linecap="round" stroke-linejoin="round"/>
<path d="M61.6367 58.793L63.8543 61.3662C65.013 62.7097 67.0747 62.7872 68.3308 61.5381L71.0912 58.793" stroke="white" stroke-width="1.5" stroke-miterlimit="10" stroke-linecap="round" stroke-linejoin="round"/>
<path d="M335.866 66.5811C330.292 69.4723 322.447 73.5388 316.606 76.5663C313.579 78.1333 310.207 75.1995 311.168 71.8356L315.378 64.8821C316.076 63.7281 316.076 62.2633 315.378 61.1137L311.168 54.1644C310.203 50.8005 313.575 47.8667 316.602 49.4337L335.862 59.4147C338.712 60.888 338.712 65.1035 335.866 66.5811Z" stroke="#99999D" stroke-width="2" stroke-miterlimit="10" stroke-linecap="round" stroke-linejoin="round"/>
</svg>
