<svg width="32" height="32" viewBox="0 0 32 32" fill="none" xmlns="http://www.w3.org/2000/svg">
<g clip-path="url(#clip0_1_9)">
<path d="M31.9995 15.9998C32.0023 17.893 31.6307 19.7681 30.9063 21.5172C30.1818 23.2664 29.1187 24.8551 27.7782 26.192L26.1924 27.7777C24.8554 29.1183 23.2667 30.1814 21.5175 30.9059C19.7683 31.6304 17.8931 32.0021 15.9998 31.9995C16.6687 31.9995 17.331 31.8678 17.949 31.6118C18.567 31.3558 19.1285 30.9807 19.6014 30.5077C20.0744 30.0347 20.4496 29.4732 20.7056 28.8552C20.9616 28.2372 21.0933 27.5749 21.0933 26.906C21.0933 26.2371 20.9616 25.5748 20.7056 24.9568C20.4496 24.3388 20.0744 23.7773 19.6014 23.3043C19.1285 22.8314 18.567 22.4562 17.949 22.2002C17.331 21.9442 16.6687 21.8125 15.9998 21.8125C16.555 21.8137 17.1049 21.7049 17.6179 21.4924C18.1308 21.28 18.5967 20.9681 18.9884 20.5747L20.5742 18.9889C20.9675 18.597 21.2795 18.1311 21.492 17.6181C21.7045 17.105 21.8134 16.5551 21.8125 15.9998C21.8125 16.6687 21.9442 17.331 22.2002 17.949C22.4562 18.5669 22.8314 19.1285 23.3043 19.6014C23.7773 20.0744 24.3388 20.4496 24.9568 20.7056C25.5748 20.9615 26.2371 21.0933 26.906 21.0933C27.5749 21.0933 28.2372 20.9615 28.8552 20.7056C29.4732 20.4496 30.0347 20.0744 30.5077 19.6014C30.9807 19.1285 31.3558 18.5669 31.6118 17.949C31.8678 17.331 31.9995 16.6687 31.9995 15.9998Z" fill="#FFAC52"/>
<path d="M10.1871 15.9998C10.1861 16.555 10.2949 17.105 10.5073 17.618C10.7198 18.131 11.0316 18.5969 11.4249 18.9889L13.0106 20.5747C13.4025 20.9681 13.8684 21.2801 14.3814 21.4925C14.8944 21.705 15.4445 21.8137 15.9998 21.8125C14.6489 21.8125 13.3533 22.3491 12.3981 23.3043C11.4429 24.2596 10.9062 25.5551 10.9062 26.906C10.9062 28.2569 11.4429 29.5525 12.3981 30.5077C13.3533 31.4629 14.6489 31.9995 15.9998 31.9995C14.1066 32.0021 12.2315 31.6305 10.4824 30.906C8.73326 30.1816 7.14456 29.1186 5.80759 27.7782L4.22184 26.1924C2.88156 24.8553 1.81881 23.2665 1.09467 21.5173C0.370539 19.7681 -0.000687349 17.8929 0.00233768 15.9998C0.00233768 17.3507 0.538976 18.6462 1.4942 19.6014C2.44942 20.5567 3.74498 21.0933 5.09586 21.0933C6.44675 21.0933 7.74231 20.5567 8.69753 19.6014C9.65275 18.6462 10.1894 17.3507 10.1894 15.9998H10.1871Z" fill="#FFAC52"/>
<path d="M15.9998 0.00233147C17.8929 -4.0842e-06 19.7679 0.371721 21.517 1.09615C23.2661 1.82059 24.8548 2.88345 26.192 4.2237L27.7777 5.80945C29.1181 7.14607 30.1811 8.73444 30.9057 10.4832C31.6302 12.2321 32.002 14.1068 31.9995 15.9998C31.9995 15.3309 31.8678 14.6685 31.6118 14.0506C31.3558 13.4326 30.9807 12.8711 30.5077 12.3981C30.0347 11.9251 29.4732 11.5499 28.8552 11.294C28.2372 11.038 27.5749 10.9062 26.906 10.9062C26.2371 10.9062 25.5748 11.038 24.9568 11.294C24.3388 11.5499 23.7773 11.9251 23.3043 12.3981C22.8314 12.8711 22.4562 13.4326 22.2002 14.0506C21.9442 14.6685 21.8125 15.3309 21.8125 15.9998C21.8134 15.4447 21.7045 14.895 21.4921 14.3822C21.2796 13.8695 20.9678 13.4038 20.5747 13.012L18.9889 11.4263C18.5971 11.0327 18.1313 10.7205 17.6182 10.5078C17.1052 10.2951 16.5551 10.1861 15.9998 10.1871C16.6777 10.2016 17.3517 10.0806 17.9822 9.83117C18.6127 9.58178 19.1871 9.20899 19.6717 8.73469C20.1562 8.26038 20.5412 7.6941 20.8041 7.06905C21.0669 6.444 21.2023 5.77276 21.2023 5.09469C21.2023 4.41663 21.0669 3.74539 20.8041 3.12034C20.5412 2.49529 20.1562 1.929 19.6717 1.4547C19.1871 0.980392 18.6127 0.60761 17.9822 0.358213C17.3517 0.108816 16.6777 -0.0121762 15.9998 0.00233147Z" fill="#23CD5D"/>
<path d="M0.00232575 15.9998C-0.000270128 14.1067 0.37134 12.2318 1.09579 10.4828C1.82024 8.73382 2.88325 7.14528 4.22369 5.80852L5.80944 4.22276C7.14632 2.88279 8.73476 1.82014 10.4835 1.09587C12.2323 0.371595 14.1069 -3.28477e-05 15.9998 0.00233246C14.6489 0.00233246 13.3533 0.538971 12.3981 1.49419C11.4429 2.44941 10.9062 3.74497 10.9062 5.09586C10.9062 6.44675 11.4429 7.74231 12.3981 8.69753C13.3533 9.65275 14.6489 10.1894 15.9998 10.1894C15.4445 10.1884 14.8945 10.2974 14.3816 10.51C13.8687 10.7226 13.4029 11.0347 13.0111 11.4281L11.4253 13.0139C11.0323 13.4054 10.7206 13.8707 10.508 14.3832C10.2955 14.8956 10.1864 15.445 10.187 15.9998C10.2016 15.3219 10.0806 14.6479 9.83117 14.0173C9.58177 13.3868 9.20899 12.8124 8.73468 12.3279C8.26037 11.8433 7.69409 11.4583 7.06904 11.1955C6.44399 10.9326 5.77275 10.7973 5.09469 10.7973C4.41662 10.7973 3.74538 10.9326 3.12033 11.1955C2.49528 11.4583 1.929 11.8433 1.45469 12.3279C0.980386 12.8124 0.607604 13.3868 0.358207 14.0173C0.10881 14.6479 -0.012182 15.3219 0.00232575 15.9998Z" fill="#23CD5D"/>
<path d="M10.9062 5.094C10.9059 6.10148 11.2043 7.08644 11.7637 7.92431C12.3232 8.76219 13.1186 9.41533 14.0493 9.80113C14.98 10.1869 16.0041 10.2881 16.9923 10.0917C17.9805 9.89542 18.8882 9.41046 19.6008 8.69819C20.3133 7.98592 20.7986 7.07834 20.9953 6.09024C21.192 5.10215 21.0912 4.07791 20.7057 3.14708C20.3203 2.21625 19.6674 1.42064 18.8298 0.860877C17.9921 0.30111 17.0072 0.00233278 15.9998 0.00233271C14.6492 0.00220898 13.3538 0.538551 12.3986 1.4934C11.4434 2.44824 10.9066 3.74339 10.9062 5.094Z" fill="#23CD5D"/>
<path d="M10.9067 26.906C10.9067 27.9134 11.2054 28.8982 11.7652 29.7359C12.3249 30.5735 13.1204 31.2264 14.0511 31.6119C14.9819 31.9974 16.006 32.0982 16.9941 31.9016C17.9822 31.7051 18.8897 31.2199 19.6021 30.5075C20.3144 29.7951 20.7995 28.8875 20.996 27.8994C21.1924 26.9113 21.0915 25.8872 20.7059 24.9565C20.3203 24.0258 19.6674 23.2303 18.8297 22.6707C17.992 22.111 17.0072 21.8124 15.9998 21.8125C14.649 21.8126 13.3535 22.3493 12.3984 23.3045C11.4433 24.2597 10.9067 25.5552 10.9067 26.906Z" fill="#FFAC52"/>
<path d="M0.00233462 15.9998C0.00233472 17.0073 0.301124 17.9921 0.860911 18.8298C1.4207 19.6675 2.21634 20.3203 3.14719 20.7058C4.07805 21.0912 5.10231 21.192 6.09042 20.9953C7.07853 20.7985 7.9861 20.3132 8.69835 19.6006C9.4106 18.888 9.89553 17.9802 10.0918 16.992C10.2881 16.0038 10.1869 14.9796 9.801 14.0489C9.41512 13.1183 8.76191 12.3229 7.92398 11.7635C7.08604 11.2041 6.10103 10.9058 5.09353 10.9062C3.74301 10.9067 2.44798 11.4436 1.49323 12.3988C0.538488 13.354 0.00221085 14.6492 0.00233462 15.9998Z" fill="#32323A"/>
<path d="M21.8125 15.9998C21.8125 17.0072 22.1112 17.992 22.6709 18.8296C23.2306 19.6672 24.0261 20.3201 24.9568 20.7056C25.8875 21.0911 26.9117 21.192 27.8997 20.9954C28.8878 20.7989 29.7953 20.3138 30.5077 19.6014C31.22 18.8891 31.7051 17.9815 31.9017 16.9935C32.0982 16.0054 31.9973 14.9813 31.6118 14.0506C31.2263 13.1198 30.5735 12.3243 29.7358 11.7647C28.8982 11.205 27.9134 10.9062 26.906 10.9062C25.5551 10.9062 24.2596 11.4429 23.3043 12.3981C22.3491 13.3533 21.8125 14.6489 21.8125 15.9998Z" fill="#32323A"/>
</g>
<defs>
<clipPath id="clip0_1_9">
<rect width="32" height="32" fill="white"/>
</clipPath>
</defs>
</svg>
